<svg xmlns="http://www.w3.org/2000/svg" xml:space="preserve" width="819.46399" height="808.03412" viewBox="0 0 819.464 808.03411"><g transform="matrix(1.33333 0 0 -1.33333 -165.285 762.586)"><ellipse cx="431.53903" cy="-268.08517" rx="301.99384" ry="298.27319" style="fill:#fff;stroke-width:28.3465" transform="scale(1 -1)"/><g style="stroke-width:.451543"><g style="stroke-width:.0936725"><path d="M0 0c-15.898 0-28.786-12.708-28.786-28.385 0-15.673 12.888-28.383 28.786-28.383 15.898 0 28.785 12.71 28.785 28.383C28.785-12.708 15.898 0 0 0m0-56.096c-15.521 0-28.104 12.406-28.104 27.711C-28.104-13.08-15.521-.673 0-.673c15.521 0 28.104-12.407 28.104-27.712S15.521-56.096 0-56.096" style="fill:#21409a;fill-opacity:1;fill-rule:nonzero;stroke:none;stroke-width:.0936725" transform="matrix(10.67548 0 0 10.67548 431.268 571.94)"/></g><g style="stroke-width:.0936725"><path d="M0 0c-12.417 0-22.484-9.926-22.484-22.17 0-12.243 10.067-22.169 22.484-22.169 12.417 0 22.484 9.926 22.484 22.169C22.484-9.926 12.417 0 0 0m0-43.896c-12.116 0-21.938 9.688-21.938 21.631C-21.938-10.317-12.116-.63 0-.63s21.939-9.687 21.939-21.635c0-11.943-9.823-21.631-21.939-21.631" style="fill:#21409a;fill-opacity:1;fill-rule:nonzero;stroke:none;stroke-width:.0936725" transform="matrix(10.67548 0 0 10.67548 431.268 505.588)"/></g><g style="stroke-width:.0936725"><path d="M0 0a.701.701 0 0 0-.706-.696A.7.7 0 0 0-1.41 0c0 .385.315.698.704.698A.702.702 0 0 0 0 0" style="fill:#21409a;fill-opacity:1;fill-rule:nonzero;stroke:none;stroke-width:.0936725" transform="matrix(10.67548 0 0 10.67548 182.13 349.219)"/></g><g style="stroke-width:.0936725"><path d="M0 0a.703.703 0 0 0-.706-.696.701.701 0 0 0-.706.696c0 .385.315.698.706.698A.703.703 0 0 0 0 0" style="fill:#21409a;fill-opacity:1;fill-rule:nonzero;stroke:none;stroke-width:.0936725" transform="matrix(10.67548 0 0 10.67548 702.424 349.219)"/></g><g style="stroke-width:.0936725"><path d="M0 0c.149-.167.258-.376.321-.63.066-.254.074-.461.027-.624l-.313-.068c-.009-.002-.018.002-.031.008-.012.008-.014.015-.004.021a.146.146 0 0 1 .045.065c.015.027.02.053.024.078.021.184-.057.42-.231.71-.173.287-.458.561-.855.816l-.371.24a.999.999 0 0 1-.251.117l.478.487c.029.03.064.03.099.008s.047-.057.039-.096c-.013-.045-.009-.078.012-.105a.305.305 0 0 1 .08-.069l.208-.135C-.325.565.043.416.383.375.72.333.97.358 1.132.446a.212.212 0 0 1 .065.055c.023.025.037.045.041.066.002.01.011.015.023.006.012-.008.018-.016.02-.024L1.345.24C1.22.129 1.023.053.755.01a1.511 1.511 0 0 0-.722.043C.017.06.004.058-.006.045-.017.035-.014.019 0 0m.346 1.58-.763.495a.584.584 0 0 1-.213.092 1.967 1.967 0 0 1-.1.019l.472.456c.031.029.059.033.084.015.025-.019.039-.05.039-.093a.132.132 0 0 1 .047-.102c.028-.024.066-.051.11-.08L3.14.362l-.275-.415-2.267 1.47L.215.841l-.342.027Z" style="fill:#21409a;fill-opacity:1;fill-rule:nonzero;stroke:none;stroke-width:.0936725" transform="matrix(10.67548 0 0 10.67548 204.086 411.964)"/></g><g style="stroke-width:.0936725"><path d="M0 0c.215-.201.309-.426.287-.68a1.074 1.074 0 0 0-.919-.964c-.254-.039-.49.041-.706.244-.218.2-.314.426-.289.675.023.248.121.463.293.641.171.18.384.291.634.33C-.45.282-.217.201 0 0m-.375-.391a.79.79 0 0 1-.403.211c-.149.026-.266-.007-.352-.096-.082-.084-.104-.201-.072-.349a.744.744 0 0 1 .234-.388.794.794 0 0 1 .411-.209c.154-.027.27.002.352.086.086.092.109.211.072.356a.804.804 0 0 1-.242.389m.86-1.775-.282.263-1.081-1.13-.125.401a.349.349 0 0 1 .055-.013c.033-.003.07.013.107.052L1.236-.419c.039.038.053.075.047.108a.314.314 0 0 1-.016.055l.407-.106L.6-1.488l.282-.262.307.321-.021.174.551.119.055-.205.428-.399L.937-3.064l.276-.256 1.165 1.218c.039.041.053.078.045.11-.006.035-.01.054-.014.054l.409-.103-1.787-1.87-.413.383a.292.292 0 0 1-.149.081c-.052.007-.101-.016-.152-.067l-.1.092 1.402 1.465-.297.274-1.4-1.463-.121.397a.297.297 0 0 1 .055-.012c.036-.004.07.012.109.051z" style="fill:#21409a;fill-opacity:1;fill-rule:nonzero;stroke:none;stroke-width:.0936725" transform="matrix(10.67548 0 0 10.67548 236.029 468.969)"/></g><g style="stroke-width:.0936725"><path d="M0 0a1.088 1.088 0 0 0-.028-.592 1.099 1.099 0 0 0-.268-.462l-.308.031a.046.046 0 0 0-.026.02c-.008.012-.008.018.006.023a.17.17 0 0 1 .065.041c.021.02.041.04.058.061.086.121.135.307.145.556.012.252-.112.553-.378.903l-.184.244a.918.918 0 0 1-.122.129c-.048.038-.073.059-.079.061l.62.297c.041.018.074.012.098-.023a.087.087 0 0 0 0-.108c-.024-.035-.031-.068-.02-.098A.322.322 0 0 1-.372.99L-.303.9C-.037.548.217.341.463.282c.244-.059.44-.067.589-.02.021.008.045.02.074.036a.182.182 0 0 1 .059.05c.006.012.012.012.021-.002a.058.058 0 0 0 .01-.031L1.159.014a1.204 1.204 0 0 0-.526-.123 1.09 1.09 0 0 0-.584.144C.037.041.025.041.01.037-.002.031-.004.018 0 0m.952 1.357-.41.542a.627.627 0 0 1-.165.16c-.058.032-.086.049-.09.049l.616.28c.034.012.063.006.084-.022.022-.029.026-.064.012-.107-.02-.047-.019-.086 0-.116.019-.031.043-.07.076-.113L2.178.573 1.771.274l-.637.843-.587-.43L.24.831Zm.315-1.472A.972.972 0 0 0 2 .076a.937.937 0 0 0 .643-.377.914.914 0 0 0 .182-.717.943.943 0 0 0-.393-.638.977.977 0 0 0-.733-.188.951.951 0 0 0-.647.376.915.915 0 0 0-.18.717.952.952 0 0 0 .395.636m.166-.221c-.092-.067-.135-.184-.127-.348a.825.825 0 0 1 .18-.466.84.84 0 0 1 .401-.303c.155-.055.282-.047.375.02.094.068.135.184.127.348a.833.833 0 0 1-.179.467.84.84 0 0 1-.403.303c-.157.055-.282.049-.374-.021" style="fill:#21409a;fill-opacity:1;fill-rule:nonzero;stroke:none;stroke-width:.0936725" transform="matrix(10.67548 0 0 10.67548 264.057 482.647)"/></g><g style="stroke-width:.0936725"><path d="m0 0-.205.401A.603.603 0 0 1-.342.59l-.077.063.642.162c.039.01.066 0 .078-.029C.315.757.311.725.289.688A.14.14 0 0 1 .276.575C.289.541.307.5.332.451l.812-1.599-.448-.221-.213.42-.567-.283-.278.197.71.349-.213.42-.567-.28-.135.094a1.767 1.767 0 0 0-.151-1.126 2.156 2.156 0 0 0-.756-.898l-.292.131c-.013.012-.019.02-.019.029-.002.007.006.014.027.016.03.002.061.01.096.027.033.018.061.032.08.05.196.168.348.426.457.774.105.348.087.7-.054 1.058-.01.025-.025.052-.039.08a.409.409 0 0 1-.024.049L-2.38-.825l.018.412a.66.66 0 0 1 .049-.029c.031-.016.07-.012.119.012l.939.465.041.17.6-.156-.021-.216c-.002-.005 0-.019.007-.041a.818.818 0 0 0 .024-.091zm.133-1.672a.988.988 0 0 0 .769.062.945.945 0 0 0 .579-.49.934.934 0 0 0 .054-.751.976.976 0 0 0-.51-.571.985.985 0 0 0-.771-.061.95.95 0 0 0-.577.493.926.926 0 0 0-.053.745.965.965 0 0 0 .509.573m.129-.249c-.107-.052-.17-.162-.195-.33a.845.845 0 0 1 .097-.499.845.845 0 0 1 .35-.377c.149-.08.276-.094.382-.041.109.053.174.162.197.33a.855.855 0 0 1-.098.499.867.867 0 0 1-.35.375c-.145.081-.275.098-.383.043" style="fill:#21409a;fill-opacity:1;fill-rule:nonzero;stroke:none;stroke-width:.0936725" transform="matrix(10.67548 0 0 10.67548 315.688 523.26)"/></g><g style="stroke-width:.0936725"><path d="M0 0a1.06 1.06 0 0 0-.229-.544 1.083 1.083 0 0 0-.414-.344l-.278.135c-.008.004-.014.012-.018.026-.004.015 0 .021.014.019.018 0 .043.004.074.017.028.012.053.022.071.036.127.086.24.246.338.475.096.231.082.555-.045.976l-.158.526a.894.894 0 0 1-.069.164.446.446 0 0 1-.049.084l.683.07c.045.004.072-.017.084-.056.013-.041 0-.073-.037-.1-.036-.026-.053-.055-.053-.086 0-.031.004-.067.017-.105L.035.948C.16.528.328.248.536.109c.209-.14.389-.213.547-.219.02 0 .047.002.082.008a.157.157 0 0 1 .067.024c.015.011.02.009.025-.005.002-.015.002-.027-.002-.034l-.16-.263c-.158-.021-.338 0-.536.063a1.066 1.066 0 0 0-.497.336.057.057 0 0 1-.037.012C.012.029.004.019 0 0m.121-1.224a.634.634 0 0 1-.168.285l.672.051c.041.002.063-.014.067-.051a.144.144 0 0 0-.023-.101.112.112 0 0 1-.008-.096L.7-1.271l.213-.704 1.414.416c.053.014.086.038.096.073a.2.2 0 0 1 .019.053l.301-.292-2.272-.663Zm2.21.6-.485-.143-.782 2.601a.614.614 0 0 1-.168.282l.674.053c.043.002.067-.014.08-.048.008-.036 0-.068-.033-.103-.033-.039-.047-.076-.039-.11.004-.037.016-.08.031-.134Z" style="fill:#21409a;fill-opacity:1;fill-rule:nonzero;stroke:none;stroke-width:.0936725" transform="matrix(10.67548 0 0 10.67548 348.721 524.505)"/></g><g style="stroke-width:.0936725"><path d="m0 0-.035.295a.556.556 0 0 1-.059.223c-.033.055-.049.086-.053.086l.663.002C.549.606.567.594.571.563.575.532.559.503.53.477A.109.109 0 0 1 .487.379L.501.237.518.086l.591.065c.052.005.086.025.105.054.016.032.026.049.024.051l.248-.344L.96-.145a.922.922 0 0 0 .219-.258.812.812 0 0 0 .109-.327.835.835 0 0 0-.207-.672.927.927 0 0 0-.621-.331.88.88 0 0 0-.665.188.868.868 0 0 0-.335.612.868.868 0 0 0 .026.342c.031.11.08.208.144.297l-.582-.064.162.389.039-.041c.024-.025.062-.035.112-.033zm2.01-3.51.54.062-.123 1.072.129.242-.544.301-.135-.197L.28-2.208c-.055-.004-.093.006-.118.031-.025.026-.037.04-.037.045l-.164-.381 1.912.211zM-.028-.878a.89.89 0 0 1 .155-.424c.084-.118.184-.172.303-.157.116.012.205.086.264.221a.879.879 0 0 1 .059.448.788.788 0 0 1-.164.417c-.088.111-.188.16-.3.148C.174-.237.086-.309.031-.436-.028-.563-.047-.71-.028-.878m2.29.637.309.033c.053.005.09.024.106.057.014.028.025.045.025.049l.247-.358-.655-.072.123-1.074-.503-.056L1.685.35a.598.598 0 0 1-.064.223c-.031.055-.047.084-.051.086l.675-.063c.039-.007.062-.027.066-.062.004-.036-.013-.069-.049-.096-.039-.033-.058-.065-.06-.1 0-.039.002-.084.008-.137Z" style="fill:#21409a;fill-opacity:1;fill-rule:nonzero;stroke:none;stroke-width:.0936725" transform="matrix(10.67548 0 0 10.67548 391.282 548.451)"/></g><g style="stroke-width:.0936725"><path d="m0 0-.311.019-.17-2.759-.465.026.092 1.503-1.667.1.133 2.116c.004.094-.019.16-.07.199a.265.265 0 0 1-.147.065l.006.133 1.299-.078c.056-.004.092.009.115.035.02.029.033.043.033.047l.182-.374-.87.052-.123-1.954 1.126-.067.131 2.089a.583.583 0 0 1-.023.229.814.814 0 0 1-.034.095l.589-.17c.035-.013.051-.031.051-.059-.002-.029-.023-.058-.061-.084a.151.151 0 0 1-.06-.093C-.248 1.036-.25.989-.254.936L-.292.315.019.297l.051.808a.601.601 0 0 1-.025.229c-.021.06-.031.092-.035.095l.59-.17c.036-.012.053-.031.051-.06-.002-.028-.021-.057-.06-.086a.12.12 0 0 1-.059-.09L.522.888l-.23-3.676-.464.027z" style="fill:#21409a;fill-opacity:1;fill-rule:nonzero;stroke:none;stroke-width:.0936725" transform="matrix(10.67548 0 0 10.67548 460.303 539.996)"/></g><g style="stroke-width:.0936725"><path d="m0 0 .072.289a.6.6 0 0 1 0 .329L.694.395C.727.385.739.364.73.336.725.307.702.285.663.268A.1.1 0 0 1 .591.19C.577.151.567.106.555.053L.518-.096l.577-.137c.049-.013.088-.006.116.016a.252.252 0 0 1 .041.039l.113-.405-.516.121a.876.876 0 0 0 .109-.66.862.862 0 0 0-.43-.56.942.942 0 0 0-.696-.103.869.869 0 0 0-.561.402.86.86 0 0 0-.104.687.874.874 0 0 0 .146.313c.067.092.146.17.237.232l-.569.135.289.311c0-.004.005-.019.02-.051.014-.031.045-.054.096-.07zm.671-3.977.526-.127.258 1.053.207.182-.408.469-.194-.14-1.563.371c-.054.014-.086.037-.101.069a.272.272 0 0 0-.02.054l-.285-.304L.96-2.795ZM-.332-.814a.894.894 0 0 1-.001-.451c.038-.141.114-.225.229-.254.116-.026.225.013.325.121.1.106.172.242.213.401a.802.802 0 0 1-.008.447c-.048.134-.125.215-.234.241-.112.027-.216-.01-.315-.11a.834.834 0 0 1-.209-.395M2.041-.99l.3-.072c.054-.015.095-.008.121.014a.327.327 0 0 1 .041.041l.106-.419-.638.151-.258-1.05-.491.117.481 1.969c.022.09.028.167.018.229a.814.814 0 0 1-.016.1l.609-.288c.038-.019.052-.046.041-.08-.007-.035-.034-.06-.077-.074-.049-.016-.08-.043-.092-.076a.72.72 0 0 1-.039-.131Z" style="fill:#21409a;fill-opacity:1;fill-rule:nonzero;stroke:none;stroke-width:.0936725" transform="matrix(10.67548 0 0 10.67548 490.083 545.59)"/></g><g style="stroke-width:.0936725"><path d="m0 0-.933.403.337.254A.184.184 0 0 1-.585.6c.008-.033.034-.062.082-.082l2.24-.973.62 1.392c.038.084.058.16.06.221v.102l.536-.385c.033-.024.043-.05.027-.077-.015-.031-.043-.047-.084-.053C2.849.732 2.818.712 2.8.681a1.165 1.165 0 0 1-.062-.12L1.697-1.777l-.461.199.119.264-.657.284-.029.336.807-.348.149.338-1.124.487-.278-.626-.503.217Zm-.541-1.032c.04.086.06.16.06.225v.1l.543-.386c.032-.025.038-.051.02-.084a.134.134 0 0 0-.086-.061.13.13 0 0 1-.068-.07l-.059-.125-.18-.405 1.431-.62c.05-.021.091-.023.122-.004a.622.622 0 0 1 .05.028l.038-.415-2.247.974Zm1.747 2.908a.854.854 0 0 0 .472-.472.814.814 0 0 0-.016-.659.818.818 0 0 0-.481-.454.876.876 0 0 0-.674.02.842.842 0 0 0-.464.473.798.798 0 0 0 .01.659.82.82 0 0 0 .483.454.87.87 0 0 0 .67-.021m-.113-.249c-.086.037-.186.018-.299-.055a.756.756 0 0 1-.268-.334.754.754 0 0 1-.068-.422C.479.686.532.6.62.562.708.524.811.542.921.616a.734.734 0 0 1 .27.333c.065.15.088.289.068.42-.023.133-.078.219-.166.258" style="fill:#21409a;fill-opacity:1;fill-rule:nonzero;stroke:none;stroke-width:.0936725" transform="matrix(10.67548 0 0 10.67548 531.049 515.289)"/></g><g style="stroke-width:.0936725"><path d="m0 0-.256.174-1.594-2.276-.383.262.868 1.238-1.375.937 1.221 1.744c.054.076.07.144.047.205a.265.265 0 0 1-.096.129l.08.11 1.071-.728c.042-.029.084-.039.116-.027a.32.32 0 0 1 .051.021l-.037-.412-.718.489-1.132-1.61.929-.633 1.206 1.724c.055.075.09.145.102.206.015.062.021.094.021.098l.415-.446c.023-.026.029-.053.01-.076-.014-.024-.046-.036-.094-.04a.139.139 0 0 1-.098-.049 3.009 3.009 0 0 1-.08-.111L-.084.417.17.243l.469.668a.62.62 0 0 1 .12.307l.414-.447c.026-.028.031-.053.012-.078C1.17.671 1.14.657 1.091.653A.135.135 0 0 1 .993.604C.972.575.943.538.913.493l-2.122-3.029-.385.26z" style="fill:#21409a;fill-opacity:1;fill-rule:nonzero;stroke:none;stroke-width:.0936725" transform="matrix(10.67548 0 0 10.67548 596.113 487.562)"/></g><g style="stroke-width:.0936725"><path d="m0 0-1.369 1.333.403.114a.214.214 0 0 1-.01-.055c-.006-.037.012-.074.049-.111L.217.168l.24.02.104-.607-.27-.054-.772-.767-.387.376zm.205 3.346c-.035.037-.052.074-.047.107a.228.228 0 0 0 .01.055l-.41-.121.416-.405a.96.96 0 0 1-.612-.27.867.867 0 0 1-.27-.643.859.859 0 0 1 .268-.628.928.928 0 0 1 .653-.266.858.858 0 0 1 .659.262c.086.086.147.18.19.288a.938.938 0 0 1 .063.33l.377-.367.119.404a.422.422 0 0 0-.058-.01c-.034-.004-.071.01-.108.044l-.421.414.108.108.102.099a.114.114 0 0 0 .103.03c.043-.006.073 0 .094.023.022.02.022.045 0 .07l-.416.507c-.002-.004-.012-.037-.037-.094a.546.546 0 0 0-.139-.188l-.21-.211Zm.108-.759c.137.035.248.012.33-.066.08-.079.104-.188.071-.325a.78.78 0 0 0-.227-.387.883.883 0 0 0-.389-.237c-.143-.039-.256-.019-.342.065-.084.08-.104.191-.065.332a.914.914 0 0 0 .239.385.877.877 0 0 0 .383.233m1.873-1.273c.039.037.073.07.102.09.029.023.067.029.117.018.047-.01.081-.002.106.023.025.027.029.057.009.09l-.373.559c0-.004-.015-.037-.037-.094a.568.568 0 0 0-.137-.188L.528.371.89.019l.772.769.466-.456.127.415L2.2.733c-.035-.006-.072.01-.111.049l-.22.215z" style="fill:#21409a;fill-opacity:1;fill-rule:nonzero;stroke:none;stroke-width:.0936725" transform="matrix(10.67548 0 0 10.67548 617.677 446.42)"/></g><g style="stroke-width:.0936725"><path d="m0 0 .839.585C.9.63.937.677.947.727a.187.187 0 0 1-.036.149l.131.092.413-.579L.301-.417l.192-.269.839.586c.062.045.098.09.108.139a.185.185 0 0 1-.036.149l.129.09.417-.575-1.156-.808.655-.911c.03-.045.067-.067.1-.066a.234.234 0 0 1 .059 0l-.184-.374L-.686.477l.422.047A.258.258 0 0 1-.285.471C-.295.436-.287.399-.256.358Zm1.656-1.522-.316.435L2.979.06 1.823 1.668l.418.043c-.004-.002-.011-.019-.021-.053-.012-.033-.002-.072.027-.113L3.248.153l.178-.014-.066-.608-.214-.012Z" style="fill:#21409a;fill-opacity:1;fill-rule:nonzero;stroke:none;stroke-width:.0936725" transform="matrix(10.67548 0 0 10.67548 635.113 427.346)"/></g><g style="stroke-width:.0936725"><path d="M0 0c-.103-.34-.378-.504-.825-.492-.262.008-.467.086-.616.232-.151.145-.221.344-.215.595.002.079.017.17.041.277.025.108.039.19.041.252 0 .022-.008.041-.029.061a.157.157 0 0 1-.069.045l.559-.016a.525.525 0 0 1-.199-.27 1.078 1.078 0 0 1-.067-.322c-.004-.149.045-.262.145-.341A.563.563 0 0 1-.892-.1c.321-.01.526.155.614.493.086.34.352.503.796.491.215-.006.377-.082.487-.225a.723.723 0 0 0 .156-.454C1.156.16 1.154.106 1.144.043a1.097 1.097 0 0 0-.02-.127l-.019-.063c-.004-.025-.008-.043-.008-.061 0-.015.004-.033.018-.054a.121.121 0 0 1 .064-.041l-.538.016a.368.368 0 0 1 .178.183.726.726 0 0 1 .059.278.294.294 0 0 1-.084.227C.735.465.647.496.53.498.282.505.106.34 0 0" style="fill:#21409a;fill-opacity:1;fill-rule:nonzero;stroke:none;stroke-width:.0936725" transform="matrix(10.67548 0 0 10.67548 163.928 277.968)"/></g><g style="stroke-width:.0936725"><path d="M0 0c.019-.033.045-.054.078-.058a.488.488 0 0 1 .096-.011L2.54.049c.031 0 .062.009.094.016a.149.149 0 0 1 .072.07l.078-1.523-.397-.02c.051.024.086.054.102.098a.414.414 0 0 1 .02.156l-.043.818-.919-.045.035-.704a.123.123 0 0 1 .037-.086.16.16 0 0 1 .074-.049l-.506-.024a.164.164 0 0 1 .08.053.143.143 0 0 1 .026.094l-.036.7-.958-.045.045-.88a.366.366 0 0 1 .039-.152.174.174 0 0 1 .108-.086l-.409-.02Z" style="fill:#21409a;fill-opacity:1;fill-rule:nonzero;stroke:none;stroke-width:.0936725" transform="matrix(10.67548 0 0 10.67548 146.601 266.64)"/></g><g style="stroke-width:.0936725"><path d="M0 0c-.229-.249-.563-.405-.999-.462-.438-.061-.8 0-1.089.18a1.018 1.018 0 0 0-.501.753c-.045.328.047.61.274.859.23.25.561.41.999.467.434.061.794 0 1.087-.18.292-.176.46-.43.507-.753A1.016 1.016 0 0 0 0 0m-1.905.021c.249-.094.534-.119.849-.078.317.045.585.139.802.286a.57.57 0 0 1 .27.598c-.031.23-.172.389-.421.487-.25.098-.534.123-.854.078a1.62 1.62 0 0 1-.798-.307C-2.27.926-2.36.733-2.329.508c.033-.23.174-.393.424-.487" style="fill:#21409a;fill-opacity:1;fill-rule:nonzero;stroke:none;stroke-width:.0936725" transform="matrix(10.67548 0 0 10.67548 175.99 228.14)"/></g><g style="stroke-width:.0936725"><path d="M0 0a.147.147 0 0 1-.088.045A.33.33 0 0 1-.184.04l-1.482-.355c-.309-.075-.579-.066-.804.032a.733.733 0 0 0-.436.532.849.849 0 0 0 .104.676c.129.213.336.351.62.417l1.58.381c.029.008.06.02.09.037.029.02.047.045.055.078l.131-.525a.125.125 0 0 1-.088.045c-.034 0-.067-.004-.094-.007L-2.135.957a.583.583 0 0 1-.376-.258.512.512 0 0 1-.076-.429.453.453 0 0 1 .284-.344.722.722 0 0 1 .467-.029l1.592.381a.28.28 0 0 1 .088.041c.031.016.05.04.058.077z" style="fill:#21409a;fill-opacity:1;fill-rule:nonzero;stroke:none;stroke-width:.0936725" transform="matrix(10.67548 0 0 10.67548 185.362 202.192)"/></g><g style="stroke-width:.0936725"><path d="m0 0-.444 1.306a.127.127 0 0 1 .092-.037.438.438 0 0 1 .094.016l2.247.741a.285.285 0 0 1 .086.045.128.128 0 0 1 .05.081l.171-.51c-.026.028-.055.045-.092.04a.245.245 0 0 1-.094-.016L-.035.962.182.319A.375.375 0 0 1 .26.184.16.16 0 0 1 .389.131Z" style="fill:#21409a;fill-opacity:1;fill-rule:nonzero;stroke:none;stroke-width:.0936725" transform="matrix(10.67548 0 0 10.67548 163.818 175.753)"/></g><g style="stroke-width:.0936725"><path d="M0 0c-.061-.139-.176-.245-.342-.327-.299-.148-.542-.155-.728-.028-.186.126-.346.327-.483.597l-.346.692a.122.122 0 0 1 .094-.025.301.301 0 0 1 .092.028L.641 2.088a.164.164 0 0 1-.025-.115.47.47 0 0 1 .037-.115.913.913 0 0 1 .121-.184 1.29 1.29 0 0 0 .127-.188c.137-.229.196-.446.18-.655C1.064.622.937.463.702.344A.638.638 0 0 0 .346.282a.504.504 0 0 0-.27.112L.07.389A.724.724 0 0 0 0 0m-.956-.017c.133-.048.293-.032.477.058.201.099.307.237.324.409a.942.942 0 0 1-.091.495.747.747 0 0 1 .297-.278C.182.598.328.598.491.68c.158.078.242.175.252.306a.664.664 0 0 1-.074.373c0 .004-.02.033-.055.086-.037.057-.072.111-.106.159L-1.449.646l.152-.298c.096-.192.209-.311.341-.365" style="fill:#21409a;fill-opacity:1;fill-rule:nonzero;stroke:none;stroke-width:.0936725" transform="matrix(10.67548 0 0 10.67548 192.264 145.947)"/></g><g style="stroke-width:.0936725"><path d="M0 0c.029-.021.063-.028.096-.021a.303.303 0 0 1 .092.034l2.049 1.174a.205.205 0 0 1 .072.062.116.116 0 0 1 .032.09l.27-.459c-.03.02-.061.024-.096.02a.43.43 0 0 1-.092-.032L.375-.307a.234.234 0 0 1-.074-.057.128.128 0 0 1-.031-.094Z" style="fill:#21409a;fill-opacity:1;fill-rule:nonzero;stroke:none;stroke-width:.0936725" transform="matrix(10.67548 0 0 10.67548 183.657 133.624)"/></g><g style="stroke-width:.0936725"><path d="M0 0a.677.677 0 0 0-.296-.368c-.277-.184-.516-.225-.719-.118-.2.101-.387.278-.557.527l-.435.643a.129.129 0 0 1 .096-.012.36.36 0 0 1 .088.041l2.181 1.44a.171.171 0 0 1-.008-.118.415.415 0 0 1 .051-.106.95.95 0 0 1 .143-.168c.054-.05.105-.107.152-.168.166-.209.254-.418.266-.626C.974.758.868.582.649.435A.576.576 0 0 0 .305.328a.544.544 0 0 0-.28.073L.019.397A.765.765 0 0 0 0 0m-.945-.135c.139-.037.292.004.466.119.185.119.272.27.264.447A.928.928 0 0 1-.37.905.797.797 0 0 1-.039.668c.14-.05.285-.029.436.069.145.098.215.209.209.34a.7.7 0 0 1-.123.36c-.002 0-.025.029-.067.078-.043.053-.086.098-.125.143L-1.522.459l.19-.278c.119-.176.248-.283.387-.316" style="fill:#21409a;fill-opacity:1;fill-rule:nonzero;stroke:none;stroke-width:.0936725" transform="matrix(10.67548 0 0 10.67548 211.097 116.1)"/></g><g style="stroke-width:.0936725"><path d="M0 0c-.167.209-.458.569-.87 1.076a.167.167 0 0 1 .099-.004c.032.017.059.029.084.049l1.854 1.458c.022.016.043.04.063.069.02.025.025.057.019.094l.339-.422c-.034.017-.067.021-.1.005a.271.271 0 0 1-.084-.045L-.364.893.062.36A.395.395 0 0 1 .18.262.18.18 0 0 1 .321.254Z" style="fill:#21409a;fill-opacity:1;fill-rule:nonzero;stroke:none;stroke-width:.0936725" transform="matrix(10.67548 0 0 10.67548 213.5 91.11)"/></g><g style="stroke-width:.0936725"><path d="M0 0a.116.116 0 0 1 .098.005.337.337 0 0 1 .08.053L1.912 1.65c.02.02.041.045.057.074a.113.113 0 0 1 .01.098L3.035.704l-.29-.266c.026.049.03.099.014.139a.353.353 0 0 1-.086.132l-.569.602-.673-.619.489-.515a.116.116 0 0 1 .084-.045.152.152 0 0 1 .088.012L1.721-.2a.159.159 0 0 1 .025.094.127.127 0 0 1-.039.085l-.489.517-.7-.642.607-.648a.382.382 0 0 1 .13-.09.169.169 0 0 1 .139.004l-.301-.278Z" style="fill:#21409a;fill-opacity:1;fill-rule:nonzero;stroke:none;stroke-width:.0936725" transform="matrix(10.67548 0 0 10.67548 217.347 86.648)"/></g><g style="stroke-width:.0936725"><path d="M0 0a.117.117 0 0 1-.004-.086c-.145.021-.29.065-.432.135-.143.074-.278.16-.405.262-.284.225-.432.5-.442.831-.01.332.12.659.388.991.263.323.565.512.909.568.344.062.655-.02.932-.237.028-.025.057-.049.092-.086a.992.992 0 0 0 .086-.09c.022-.024.043-.054.061-.074l.043-.049a.073.073 0 0 1 .049-.017c.021 0 .045.013.072.034l-.315-.389a.439.439 0 0 1-.074.245.903.903 0 0 1-.199.217c-.194.156-.419.192-.673.119a1.365 1.365 0 0 1-.679-.478c-.205-.254-.322-.5-.346-.75a.645.645 0 0 1 .262-.61c.067-.053.139-.102.223-.143A.449.449 0 0 1-.231.327l.581.713-.395.314a.142.142 0 0 1-.09.03.151.151 0 0 1-.092-.03l.313.385a.169.169 0 0 1-.006-.09.139.139 0 0 1 .051-.078l.69-.544L.058.09C.033.062.017.028 0 0" style="fill:#21409a;fill-opacity:1;fill-rule:nonzero;stroke:none;stroke-width:.0936725" transform="matrix(10.67548 0 0 10.67548 263.906 47.501)"/></g><g style="stroke-width:.0936725"><path d="M0 0c.045 0 .074.021.086.058a.427.427 0 0 1 .017.127l-.084 1.1-.025.017-.512-.766A.36.36 0 0 1-.557.45.117.117 0 0 1-.542.353l-.455.293a.117.117 0 0 1 .095.03c.026.02.047.041.063.065L.612 2.91a.169.169 0 0 1 .025-.102.354.354 0 0 1 .077-.078c.039-.024.109-.057.207-.102.1-.045.194-.09.28-.148.205-.126.35-.294.436-.502.086-.206.048-.435-.118-.684-.136-.201-.297-.319-.483-.353a.862.862 0 0 0-.541.079l-.086.041.094-1.233a.387.387 0 0 1 .084-.213zm.814 1.244c.138.017.258.107.371.275.086.13.123.261.107.397-.017.139-.115.258-.295.36-.004.004-.035.021-.088.053a.978.978 0 0 1-.168.09l-.595-.892.216-.143c.168-.107.32-.155.452-.14" style="fill:#21409a;fill-opacity:1;fill-rule:nonzero;stroke:none;stroke-width:.0936725" transform="matrix(10.67548 0 0 10.67548 278.392 35.001)"/></g><g style="stroke-width:.0936725"><path d="M0 0a.595.595 0 0 1-.047-.041.097.097 0 0 1-.024-.037c-.011-.013-.012-.028-.012-.049 0-.02.005-.041.016-.05L-.44.016a.2.2 0 0 1 .11.046c.038.028.079.06.123.097l1.961 1.83.043-.02-.379-2.772a.258.258 0 0 1 .007-.09.19.19 0 0 1 .04-.086l-.501.266c.018 0 .037.005.051.013a.13.13 0 0 1 .033.037c.006.012.012.024.016.045.004.024.009.041.009.061l.079.552L.416.38Zm1.316 1.207L.628.577l.561-.295Z" style="fill:#21409a;fill-opacity:1;fill-rule:nonzero;stroke:none;stroke-width:.0936725" transform="matrix(10.67548 0 0 10.67548 293.487 28.278)"/></g><g style="stroke-width:.0936725"><path d="M0 0c.1-.294.063-.654-.113-1.076-.155-.372-.374-.635-.658-.778-.285-.147-.59-.151-.917-.02l-.76.307c.037.004.066.02.088.045a.247.247 0 0 1 .049.078L-1.31.95c.002-.028.02-.057.049-.086a.254.254 0 0 1 .082-.057c.029-.012.098-.033.207-.057.108-.025.211-.058.309-.099C-.323.512-.103.295 0 0m-.935-1.555c.194.143.352.356.473.651.116.278.157.549.118.799a.59.59 0 0 1-.409.502l-.326.115-.835-2.001.367-.148a.588.588 0 0 1 .612.082" style="fill:#21409a;fill-opacity:1;fill-rule:nonzero;stroke:none;stroke-width:.0936725" transform="matrix(10.67548 0 0 10.67548 340.245 32.332)"/></g><g style="stroke-width:.0936725"><path d="M0 0a.134.134 0 0 1-.086-.053.289.289 0 0 1-.043-.086l-.444-1.436c-.092-.299-.239-.525-.44-.668-.2-.143-.427-.176-.685-.098a.877.877 0 0 0-.541.434c-.116.217-.131.463-.047.737l.473 1.538c.01.029.014.058.014.091a.124.124 0 0 1-.041.09l.527-.155A.134.134 0 0 1-1.397.34.384.384 0 0 1-1.44.254l-.486-1.576a.594.594 0 0 1 .035-.454.532.532 0 0 1 .336-.283.473.473 0 0 1 .446.066.752.752 0 0 1 .262.381L-.37-.065a.335.335 0 0 1 .012.094.105.105 0 0 1-.039.086z" style="fill:#21409a;fill-opacity:1;fill-rule:nonzero;stroke:none;stroke-width:.0936725" transform="matrix(10.67548 0 0 10.67548 367.575 27.047)"/></g><g style="stroke-width:.0936725"><path d="M0 0a1.076 1.076 0 0 1-.033-.053c-.008-.02-.014-.029-.016-.041a.146.146 0 0 1 .004-.057.122.122 0 0 1 .029-.041l-.412.086a.21.21 0 0 1 .095.074c.026.036.057.077.087.131l1.374 2.288.049-.009.411-2.767a.198.198 0 0 1 .029-.082.187.187 0 0 1 .065-.069l-.558.114a.069.069 0 0 1 .047.03.074.074 0 0 1 .022.044.163.163 0 0 1 0 .045.296.296 0 0 1-.006.062l-.08.553-.816.171Zm.929 1.515L.442.725l.622-.131Z" style="fill:#21409a;fill-opacity:1;fill-rule:nonzero;stroke:none;stroke-width:.0936725" transform="matrix(10.67548 0 0 10.67548 366.616 .087)"/></g><g style="stroke-width:.0936725"><path d="M0 0a.154.154 0 0 1-.045.082.129.129 0 0 1-.072.037l-.542.073-.303-2.194a.303.303 0 0 1 .004-.094c.006-.037.027-.061.056-.082l-.547.07a.115.115 0 0 1 .076.066.313.313 0 0 1 .029.09l.301 2.197-.541.07a.114.114 0 0 1-.08-.02.217.217 0 0 1-.063-.066l.053.389L.051.389z" style="fill:#21409a;fill-opacity:1;fill-rule:nonzero;stroke:none;stroke-width:.0936725" transform="matrix(10.67548 0 0 10.67548 406.247 16.038)"/></g><g style="stroke-width:.0936725"><path d="M0 0a.14.14 0 0 1 .067.069.41.41 0 0 1 .021.095l.119 2.333a.287.287 0 0 1-.011.094.133.133 0 0 1-.061.078l1.545-.078-.02-.393c-.016.058-.045.094-.088.111a.43.43 0 0 1-.154.037l-.835.041-.045-.909.716-.033a.127.127 0 0 1 .091.025.17.17 0 0 1 .057.069l-.027-.499a.148.148 0 0 1-.047.082.12.12 0 0 1-.088.036l-.716.037L.475.25l.892-.045a.348.348 0 0 1 .156.021.18.18 0 0 1 .1.097l-.022-.401Z" style="fill:#21409a;fill-opacity:1;fill-rule:nonzero;stroke:none;stroke-width:.0936725" transform="matrix(10.67548 0 0 10.67548 408.958 -8.607)"/></g><g style="stroke-width:.0936725"><path d="M0 0c.354-.065.551-.315.587-.753.023-.258-.032-.471-.163-.635-.129-.16-.321-.254-.575-.274a1.352 1.352 0 0 0-.285.009c-.11.011-.196.015-.258.011a.1.1 0 0 1-.057-.037.157.157 0 0 1-.039-.069l-.045.549a.54.54 0 0 1 .293-.168c.125-.025.235-.037.332-.029.153.012.259.074.327.18a.561.561 0 0 1 .086.348c-.027.319-.217.5-.567.549-.352.045-.547.291-.583.724-.019.213.038.381.172.499a.714.714 0 0 0 .44.205c.044.004.1.008.163.004.066 0 .109-.004.129-.004l.07-.012c.022-.004.041-.004.061-.004a.178.178 0 0 1 .051.024c.019.017.029.037.033.07L.217.659a.37.37 0 0 1-.205.152c-.086.028-.179.036-.284.028A.322.322 0 0 1-.493.732C-.548.667-.571.577-.562.462-.542.217-.354.062 0 0" style="fill:#21409a;fill-opacity:1;fill-rule:nonzero;stroke:none;stroke-width:.0936725" transform="matrix(10.67548 0 0 10.67548 457.373 8.699)"/></g><g style="stroke-width:.0936725"><path d="M0 0a.124.124 0 0 1-.022.045.098.098 0 0 1-.036.025c-.007.004-.02.004-.038 0-.019 0-.033-.005-.039-.005A.79.79 0 0 1-.33.009a.61.61 0 0 0-.182-.058 1.156 1.156 0 0 0-.949.23c-.268.209-.438.523-.51.937-.07.405-.012.753.17 1.043a1.106 1.106 0 0 0 1.044.532c.09-.004.143-.007.163-.004a.112.112 0 0 1 .064.034.099.099 0 0 1 .039.069l.086-.504a.519.519 0 0 1-.205.119.708.708 0 0 1-.338.008.685.685 0 0 1-.548-.43 1.398 1.398 0 0 1-.084-.801 1.28 1.28 0 0 1 .364-.725.726.726 0 0 1 .655-.222c.129.021.231.054.307.091a.417.417 0 0 1 .17.159z" style="fill:#21409a;fill-opacity:1;fill-rule:nonzero;stroke:none;stroke-width:.0936725" transform="matrix(10.67548 0 0 10.67548 489.165 -4.896)"/></g><g style="stroke-width:.0936725"><path d="M0 0c.031.029.045.058.045.091a.292.292 0 0 1-.008.094l-.266 1.006-.794-.205.266-1.007a.306.306 0 0 1 .039-.085.123.123 0 0 1 .083-.053l-.526-.14a.118.118 0 0 1 .041.091.292.292 0 0 1-.008.094l-.598 2.26a.31.31 0 0 1-.04.085.124.124 0 0 1-.08.057l.526.136a.13.13 0 0 1-.045-.086.26.26 0 0 1 .01-.099l.252-.958.796.205-.256.958A.267.267 0 0 1-.6 2.53c-.018.033-.047.049-.084.057l.526.136a.132.132 0 0 1-.043-.086.218.218 0 0 1 .007-.095L.405.278A.258.258 0 0 1 .446.192.118.118 0 0 1 .528.14Z" style="fill:#21409a;fill-opacity:1;fill-rule:nonzero;stroke:none;stroke-width:.0936725" transform="matrix(10.67548 0 0 10.67548 508.217 .566)"/></g><g style="stroke-width:.0936725"><path d="M0 0c.296-.168.521-.454.675-.859.154-.411.172-.775.057-1.089a1.045 1.045 0 0 0-.642-.648 1.041 1.041 0 0 0-.911.082c-.297.164-.522.454-.675.86-.152.405-.17.765-.056 1.089.115.315.326.532.637.647C-.602.196-.297.168 0 0m.389-1.838c.041.258.004.536-.105.835a1.88 1.88 0 0 1-.452.712.607.607 0 0 1-.655.131c-.217-.077-.346-.249-.389-.512a1.611 1.611 0 0 1 .105-.839c.112-.299.27-.532.474-.704.205-.172.416-.217.631-.139.221.083.35.254.391.516" style="fill:#21409a;fill-opacity:1;fill-rule:nonzero;stroke:none;stroke-width:.0936725" transform="matrix(10.67548 0 0 10.67548 530.897 34.699)"/></g><g style="stroke-width:.0936725"><path d="M0 0c.313-.131.569-.393.766-.781.198-.39.255-.749.175-1.077a1.028 1.028 0 0 0-.564-.708 1.052 1.052 0 0 0-.915-.021c-.313.136-.569.394-.766.782-.196.389-.256.745-.175 1.076.077.328.264.57.56.712C-.62.131-.315.14 0 0m.589-1.784c.013.265-.055.536-.196.818a1.857 1.857 0 0 1-.528.659.603.603 0 0 1-.667.062c-.205-.103-.315-.287-.327-.549-.015-.266.05-.54.194-.827.145-.282.33-.499.55-.647.223-.147.438-.168.643-.069.209.107.321.286.331.553" style="fill:#21409a;fill-opacity:1;fill-rule:nonzero;stroke:none;stroke-width:.0936725" transform="matrix(10.67548 0 0 10.67548 556.543 46.667)"/></g><g style="stroke-width:.0936725"><path d="M0 0c-.229-.144-.626-.385-1.187-.725a.132.132 0 0 1 .016.095.322.322 0 0 1-.039.086l-1.246 1.989a.3.3 0 0 1-.064.07.11.11 0 0 1-.092.028l.463.287a.123.123 0 0 1-.018-.099c.008-.037.022-.061.036-.089L-.939-.254l.583.357a.334.334 0 0 1 .114.106c.029.036.037.082.027.135z" style="fill:#21409a;fill-opacity:1;fill-rule:nonzero;stroke:none;stroke-width:.0936725" transform="matrix(10.67548 0 0 10.67548 589.101 36.576)"/></g><g style="stroke-width:.0936725"><path d="M0 0c.337-.058.648-.254.929-.586.284-.335.425-.667.425-1.007 0-.335-.126-.609-.382-.818a1.057 1.057 0 0 0-.884-.234c-.336.062-.647.258-.929.59-.283.327-.424.663-.426 1.003-.002.339.125.614.376.823.256.212.553.291.891.229m.997-1.604a1.676 1.676 0 0 1-.387.752 1.806 1.806 0 0 1-.67.516.593.593 0 0 1-.661-.09c-.178-.143-.239-.347-.19-.61.051-.262.178-.512.387-.757a1.69 1.69 0 0 1 .688-.504c.251-.09.464-.065.64.082.18.148.244.353.193.611" style="fill:#21409a;fill-opacity:1;fill-rule:nonzero;stroke:none;stroke-width:.0936725" transform="matrix(10.67548 0 0 10.67548 606.449 81.498)"/></g><g style="stroke-width:.0936725"><path d="M0 0c-.053.033-.104.041-.151.021a.392.392 0 0 1-.133-.09l-.637-.635.651-.639.532.532a.142.142 0 0 1 .041.086.176.176 0 0 1-.014.086l.36-.351a.169.169 0 0 1-.096.02.14.14 0 0 1-.084-.041l-.532-.532.759-.737c.021-.021.047-.036.08-.057a.133.133 0 0 1 .1 0l-.382-.385c.01.036.007.07-.011.098a.28.28 0 0 1-.055.074L-1.26-.908a.319.319 0 0 1-.078.056.11.11 0 0 1-.097.004L-.298.291z" style="fill:#21409a;fill-opacity:1;fill-rule:nonzero;stroke:none;stroke-width:.0936725" transform="matrix(10.67548 0 0 10.67548 624.818 97.752)"/></g><g style="stroke-width:.0936725"><path d="M0 0c-.035.004-.063.008-.092 0a.142.142 0 0 1-.07-.045l-.329-.434L1.31-1.806a.287.287 0 0 1 .086-.041.145.145 0 0 1 .098.009l-.329-.438c.006.041 0 .07-.021.098-.02.029-.043.049-.067.07L-.72-.782l-.328-.434c-.016-.02-.022-.045-.02-.078a.234.234 0 0 1 .026-.086l-.317.237L-.317.233z" style="fill:#21409a;fill-opacity:1;fill-rule:nonzero;stroke:none;stroke-width:.0936725" transform="matrix(10.67548 0 0 10.67548 647.259 125.764)"/></g><g style="stroke-width:.0936725"><path d="M0 0a.122.122 0 0 1-.029.098.32.32 0 0 1-.072.061l-.896.549-.432-.687.897-.549a.231.231 0 0 1 .086-.037.128.128 0 0 1 .1.016l-.287-.454a.118.118 0 0 1-.03.09.285.285 0 0 1-.072.061L-2.749.38a.281.281 0 0 1-.088.037.132.132 0 0 1-.096-.012l.287.454C-2.65.822-2.643.79-2.62.765a.42.42 0 0 1 .074-.062l.851-.523.434.687-.851.525c-.027.015-.057.024-.09.036-.033.009-.066 0-.099-.021l.289.459c-.006-.037.006-.065.027-.095a.327.327 0 0 1 .071-.065L.1.475C.125.462.155.445.188.441a.121.121 0 0 1 .098.017Z" style="fill:#21409a;fill-opacity:1;fill-rule:nonzero;stroke:none;stroke-width:.0936725" transform="matrix(10.67548 0 0 10.67548 677.216 126.858)"/></g><g style="stroke-width:.0936725"><path d="M0 0a.12.12 0 0 1-.039.09.346.346 0 0 1-.078.057l-2.112 1.057a.302.302 0 0 1-.092.025.114.114 0 0 1-.094-.021l.698 1.358.354-.175c-.055.007-.102-.004-.137-.037a.387.387 0 0 1-.096-.123l-.377-.733.821-.409.325.631c.015.028.021.061.015.09a.16.16 0 0 1-.043.078l.452-.226a.145.145 0 0 1-.166-.073L-.895.958l.856-.43.405.786a.45.45 0 0 1 .046.152c0 .045-.017.09-.054.127l.367-.181Z" style="fill:#21409a;fill-opacity:1;fill-rule:nonzero;stroke:none;stroke-width:.0936725" transform="matrix(10.67548 0 0 10.67548 683.44 137.295)"/></g><g style="stroke-width:.0936725"><path d="M0 0c.328.106.692.077 1.101-.082.41-.164.694-.393.856-.688.159-.298.178-.597.055-.905a1.03 1.03 0 0 0-.671-.613c-.323-.103-.692-.078-1.101.086-.406.159-.69.389-.854.687a.999.999 0 0 0-.059.901C-.55-.308-.325-.103 0 0m1.646-.95a1.71 1.71 0 0 1-.7.483 1.885 1.885 0 0 1-.84.148.594.594 0 0 1-.538-.394c-.084-.208-.043-.413.125-.622.168-.208.403-.372.702-.491.297-.114.579-.159.848-.122.263.036.44.159.526.368.085.217.044.426-.123.63" style="fill:#21409a;fill-opacity:1;fill-rule:nonzero;stroke:none;stroke-width:.0936725" transform="matrix(10.67548 0 0 10.67548 677.3 185.105)"/></g><g style="stroke-width:.0936725"><path d="M0 0c-.078-.254-.211-.695-.399-1.318a.13.13 0 0 1-.054.082.28.28 0 0 1-.088.041l-2.269.667a.35.35 0 0 1-.094.012.114.114 0 0 1-.091-.041l.156.516a.108.108 0 0 1 .053-.082c.027-.021.056-.032.086-.045l2.168-.635.196.648a.352.352 0 0 1 .017.151.17.17 0 0 1-.074.118z" style="fill:#21409a;fill-opacity:1;fill-rule:nonzero;stroke:none;stroke-width:.0936725" transform="matrix(10.67548 0 0 10.67548 708.482 198.865)"/></g><g style="stroke-width:.0936725"><path d="M0 0c.301.16.667.196 1.097.11.434-.086.755-.261.966-.523.212-.266.284-.561.219-.88a1.024 1.024 0 0 0-.549-.721c-.3-.164-.667-.2-1.097-.11-.429.086-.751.258-.966.523a1 1 0 0 0-.223.876c.066.324.25.566.553.725m1.791-.643a1.771 1.771 0 0 1-.776.353 1.93 1.93 0 0 1-.851-.004.597.597 0 0 1-.461-.483c-.047-.221.033-.418.235-.594.205-.172.463-.29.778-.352.317-.065.602-.057.858.025.253.082.405.233.45.458.049.225-.031.422-.233.597" style="fill:#21409a;fill-opacity:1;fill-rule:nonzero;stroke:none;stroke-width:.0936725" transform="matrix(10.67548 0 0 10.67548 689.08 229.277)"/></g><g style="stroke-width:.0936725"><path d="M0 0c.033 0 .057.017.074.041.063-.132.104-.278.122-.435a2.209 2.209 0 0 0 0-.474c-.034-.361-.19-.63-.464-.819-.276-.188-.627-.261-1.056-.22-.416.04-.743.183-.981.437a1.107 1.107 0 0 0-.302.901c.003.033.01.074.018.123.012.045.023.086.033.118.008.033.02.065.028.095.01.028.017.048.019.061a.082.082 0 0 1-.016.049c-.011.017-.031.028-.064.041l.502-.049a.419.419 0 0 1-.168-.192.907.907 0 0 1-.076-.283.686.686 0 0 1 .266-.623c.203-.171.461-.269.78-.298.325-.033.599.008.825.123a.648.648 0 0 1 .374.549c.008.085.008.171 0 .261a.584.584 0 0 1-.063.221l-.928.086-.047-.495a.122.122 0 0 1 .021-.09.157.157 0 0 1 .076-.058l-.496.045a.183.183 0 0 1 .078.045.13.13 0 0 1 .039.082l.084.868 1.216-.115A.29.29 0 0 1 0 0" style="fill:#21409a;fill-opacity:1;fill-rule:nonzero;stroke:none;stroke-width:.0936725" transform="matrix(10.67548 0 0 10.67548 715.471 255.631)"/></g><g style="stroke-width:.0936725"><path d="M0 0a.298.298 0 0 1 .092-.114.958.958 0 0 1 .127-.084l1.23-.66 1.117-.013a.23.23 0 0 1 .078.017.144.144 0 0 1 .058.057l-.007-.528c-.014.033-.03.054-.053.061a.16.16 0 0 1-.079.021l-1.118.008-1.242-.7-.119-.078a.304.304 0 0 1-.103-.118l.005.667a.195.195 0 0 1 .033-.054c.014-.011.032-.024.05-.024a.447.447 0 0 1 .173.065l.878.516v.004l-.868.462a.846.846 0 0 1-.094.043.214.214 0 0 1-.072.02.094.094 0 0 1-.053-.02C.014-.464.004-.485-.004-.505z" style="fill:#21409a;fill-opacity:1;fill-rule:nonzero;stroke:none;stroke-width:.0936725" transform="matrix(10.67548 0 0 10.67548 689.36 281.309)"/></g><g style="stroke-width:.0936725"><path d="M0 0c-11.744 0-21.262-9.386-21.262-20.966 0-11.576 9.518-20.966 21.262-20.966 11.743 0 21.262 9.39 21.262 20.966C21.262-9.386 11.743 0 0 0m-.019-32.98c-2.247 1.748-4.754.557-4.754.557l1.49 6.901c1.752.319 3.179-.532 3.179-.532l-.175 2.148-1.706.32 1.729.238.323 1.681.26-1.662 1.728-.318-1.75-.279-.152-2.128c1.988.765 3.348.381 3.348.381l1.513-6.816C2.92-31.338-.019-32.98-.019-32.98m13.381.848L.037-18.36l-13.082-13.691h-.803L.037-15.749l14.128-16.383zm1.445 0L.037-12.108-14.57-32.051h-.805L.037-8.626l15.572-23.506ZM.037-4.906l-16.214-27.145h-.802L.037-1.424l17.256-30.708h-.802z" style="fill:#21409a;fill-opacity:1;fill-rule:nonzero;stroke:none;stroke-width:.0936725" transform="matrix(10.67548 0 0 10.67548 431.268 492.739)"/></g><g style="stroke-width:.0936725"><path d="M0 0c-.256.103-.18.356-.18.521a.385.385 0 0 1-.391.384c-.27 0-.317-.237-.317-.237l-.195-.164.301-.119-.014-.282C-.872-.012-1.308-.09-1.639-.4c-.33-.312-.403-.872-.403-.872v-2.591h.538v2.574a.903.903 0 0 0 .317.532v-3.106h.557v3.422h.254V-3.88h.587v3.11c.239-.175.27-.4.27-.4v-2.693h.526v2.856C.825-.311.256-.102 0 0" style="fill:#21409a;fill-opacity:1;fill-rule:nonzero;stroke:none;stroke-width:.0936725" transform="matrix(10.67548 0 0 10.67548 437.841 201.003)"/></g></g></g></svg>