<svg xmlns="http://www.w3.org/2000/svg" width="700" height="264.87299" viewBox="0 0 699.99999 264.87299"><defs><clipPath id="a" clipPathUnits="userSpaceOnUse"><path d="M0 595.28h841.89V0H0Z"/></clipPath></defs><path d="M0 0v13.029h2.889v-5.9l4.504 5.9h3.341L5.897 7.094 10.909 0H7.43L2.889 6.816V0Z" style="fill:#ca006c;fill-opacity:1;fill-rule:nonzero;stroke:none" transform="matrix(2.68323 0 0 -2.68323 0 254.22)"/><g clip-path="url(#a)" transform="matrix(2.68323 0 0 -2.68323 -795.517 909.512)"><path d="M0 0c0 .713-.216 1.279-.646 1.705-.431.424-1.009.635-1.736.635-.725 0-1.301-.209-1.725-.631-.425-.422-.637-.99-.637-1.709 0-.713.212-1.281.637-1.709.424-.428 1-.641 1.725-.641.72 0 1.297.213 1.731.641C-.218-1.281 0-.713 0 0m2.676-.018c0-1.341-.475-2.457-1.426-3.345C.3-4.254-.905-4.699-2.363-4.699c-1.471 0-2.683.445-3.637 1.336-.953.888-1.431 2.004-1.431 3.345 0 1.334.481 2.452 1.441 3.348.96.895 2.169 1.344 3.627 1.344 1.465 0 2.671-.442 3.618-1.326.947-.885 1.421-2.006 1.421-3.366" style="fill:#ca006c;fill-opacity:1;fill-rule:nonzero;stroke:none" transform="translate(315.012 248.57)"/><path d="M0 0c.265.848.645 1.484 1.14 1.904.495.422 1.109.633 1.841.633.166 0 .44-.029.822-.09l.166-.025-.398-2.725a3.493 3.493 0 0 1-.594.174 3.49 3.49 0 0 1-.633.057c-.8 0-1.375-.198-1.726-.592-.35-.395-.526-1.055-.526-1.981v-3.843h-2.63v8.73H.056z" style="fill:#ca006c;fill-opacity:1;fill-rule:nonzero;stroke:none" transform="translate(322.21 250.706)"/><path d="M0 0c-.074.553-.281.969-.623 1.252-.342.281-.808.422-1.398.422-.591 0-1.064-.141-1.417-.422C-3.792.969-4.019.553-4.116 0Zm2.603-1.529H-4.2c.105-.629.342-1.1.711-1.412.369-.311.871-.467 1.505-.467.479 0 .893.09 1.241.267.347.178.639.448.872.811l2.123-1.025C1.76-4.119 1.163-4.688.461-5.059c-.701-.371-1.535-.556-2.501-.556-1.465 0-2.624.422-3.48 1.263-.855.842-1.283 1.977-1.283 3.401 0 1.371.449 2.498 1.343 3.383.896.884 2.042 1.326 3.439 1.326 1.439 0 2.578-.414 3.415-1.242C2.23 1.688 2.648.559 2.648-.871c0-.078-.002-.162-.008-.254a12.742 12.742 0 0 0-.037-.404" style="fill:#ca006c;fill-opacity:1;fill-rule:nonzero;stroke:none" transform="translate(333.61 249.485)"/><path d="M0 0c0 .783-.205 1.402-.613 1.859-.41.457-.962.686-1.658.686-.713 0-1.275-.227-1.684-.682C-4.364 1.41-4.568.789-4.568 0c0-.789.201-1.404.604-1.844.402-.437.961-.658 1.675-.658.726 0 1.289.221 1.689.658.4.44.6 1.055.6 1.844m2.399-4.379H-.147l.037 1.254c-.358-.551-.786-.957-1.288-1.215-.501-.258-1.113-.387-1.832-.387-1.201 0-2.168.43-2.903 1.291-.735.86-1.103 1.997-1.103 3.409 0 1.47.361 2.617 1.085 3.441.722.82 1.727 1.232 3.013 1.232.67 0 1.26-.146 1.767-.435.508-.291.934-.725 1.278-1.301v1.442h2.492z" style="fill:#ca006c;fill-opacity:1;fill-rule:nonzero;stroke:none" transform="translate(344.879 248.597)"/><path d="M0 0v8.73h2.575V7.359c.474.571.983.991 1.528 1.262a4.02 4.02 0 0 0 1.813.404c.701 0 1.291-.115 1.768-.343a2.6 2.6 0 0 0 1.13-1.045c.135-.244.232-.52.29-.824.059-.307.088-.786.088-1.438V0H6.563v4.316c0 1.075-.13 1.784-.388 2.127-.259.344-.702.516-1.329.516-.364 0-.698-.072-1.002-.217A2.05 2.05 0 0 1 2.736 5.41c-.07-.265-.106-.674-.106-1.219V0Z" style="fill:#ca006c;fill-opacity:1;fill-rule:nonzero;stroke:none" transform="translate(349.752 244.218)"/><path d="m0 0-1.514 4.211a6.867 6.867 0 0 0-.166.641c-.067.302-.138.673-.212 1.111a41.01 41.01 0 0 0-.231-1.135 8.452 8.452 0 0 0-.166-.672L-3.747 0Zm-8.603-4.957 5.142 13.029h3.304L5.058-4.957H1.772L.674-2.189H-4.56l-.941-2.768z" style="fill:#ca006c;fill-opacity:1;fill-rule:nonzero;stroke:none" transform="translate(374.469 249.175)"/><path d="M0 0a4.297 4.297 0 0 0-1.126-.459 5.345 5.345 0 0 0-1.292-.146c-1.428 0-2.591.437-3.489 1.312-.899.875-1.348 2.014-1.348 3.414 0 1.369.452 2.486 1.358 3.352.904.863 2.076 1.295 3.516 1.295.48 0 .91-.045 1.292-.133.381-.09.744-.229 1.089-.42L-.019 5.67a2.955 2.955 0 0 1-.96.631 3.023 3.023 0 0 1-1.153.222c-.738 0-1.329-.218-1.772-.654-.444-.435-.664-1.014-.664-1.73 0-.737.225-1.323.677-1.758.453-.436 1.064-.654 1.832-.654.425 0 .802.074 1.131.222.329.149.633.379.909.694z" style="fill:#ca006c;fill-opacity:1;fill-rule:nonzero;stroke:none" transform="translate(387.39 244.476)"/><path d="M0 0c0 .783-.205 1.402-.613 1.859-.41.457-.962.686-1.658.686-.713 0-1.275-.227-1.684-.682C-4.364 1.41-4.568.789-4.568 0c0-.789.201-1.404.604-1.844.402-.437.961-.658 1.675-.658.726 0 1.289.221 1.689.658.4.44.6 1.055.6 1.844m2.399-4.379H-.147l.037 1.254c-.358-.551-.786-.957-1.288-1.215-.501-.258-1.113-.387-1.832-.387-1.201 0-2.168.43-2.903 1.291-.735.86-1.103 1.997-1.103 3.409 0 1.47.361 2.617 1.085 3.441.722.82 1.727 1.232 3.013 1.232.67 0 1.26-.146 1.767-.435.508-.291.934-.725 1.278-1.301v1.442h2.492z" style="fill:#ca006c;fill-opacity:1;fill-rule:nonzero;stroke:none" transform="translate(396.048 248.597)"/><path d="M0 0c0 .783-.205 1.402-.613 1.859-.41.457-.962.686-1.658.686-.713 0-1.275-.225-1.684-.672-.409-.447-.613-1.066-.613-1.855 0-.789.201-1.407.604-1.852.402-.445.961-.668 1.675-.668.726 0 1.289.221 1.689.658.4.44.6 1.055.6 1.844m2.399-4.379H-.147l.037 1.254c-.358-.551-.786-.957-1.288-1.215-.501-.258-1.113-.387-1.832-.387-1.201 0-2.168.43-2.903 1.291-.735.86-1.103 1.997-1.103 3.409 0 1.476.361 2.629 1.085 3.455.722.824 1.727 1.236 3.013 1.236.659 0 1.237-.144 1.735-.435.499-.291.966-.752 1.403-1.381a8.326 8.326 0 0 0-.069.709c-.016.257-.024.552-.024.884v4.975h2.492z" style="fill:#ca006c;fill-opacity:1;fill-rule:nonzero;stroke:none" transform="translate(407.595 248.597)"/><path d="M0 0c-.074.553-.281.969-.623 1.252-.342.281-.808.422-1.398.422-.591 0-1.064-.141-1.417-.422C-3.792.969-4.019.553-4.116 0Zm2.603-1.529H-4.2c.105-.629.342-1.1.711-1.412.369-.311.871-.467 1.505-.467.479 0 .893.09 1.241.267.347.178.639.448.872.811l2.123-1.025C1.76-4.119 1.163-4.688.461-5.059c-.701-.371-1.535-.556-2.501-.556-1.465 0-2.624.422-3.48 1.263-.855.842-1.283 1.977-1.283 3.401 0 1.371.449 2.498 1.343 3.383.896.884 2.042 1.326 3.439 1.326 1.439 0 2.578-.414 3.415-1.242C2.23 1.688 2.648.559 2.648-.871c0-.078-.002-.162-.008-.254a12.742 12.742 0 0 0-.037-.404" style="fill:#ca006c;fill-opacity:1;fill-rule:nonzero;stroke:none" transform="translate(418.81 249.485)"/><path d="M0 0h-2.631v8.73H0V7.359c.431.577.891.998 1.38 1.266.488.268 1.044.4 1.665.4.751 0 1.362-.148 1.833-.445.471-.297.804-.744 1.001-1.346.418.596.893 1.041 1.426 1.342a3.51 3.51 0 0 0 1.749.449c.639 0 1.182-.115 1.629-.343a2.409 2.409 0 0 0 1.039-1.028c.129-.25.221-.531.276-.845.056-.315.083-.793.083-1.434V0h-2.63v4.316c0 1.063-.112 1.768-.337 2.118-.224.351-.617.525-1.176.525-.678 0-1.168-.242-1.473-.729-.305-.488-.457-1.283-.457-2.386V0h-2.63v4.316c0 1.026-.105 1.721-.315 2.082-.209.362-.569.543-1.079.543-.696 0-1.2-.244-1.513-.734C.156 5.719 0 4.93 0 3.844Z" style="fill:#ca006c;fill-opacity:1;fill-rule:nonzero;stroke:none" transform="translate(425.999 244.218)"/><path d="m0 0-3.646 8.055h3.037L.96 4.059a4.9 4.9 0 0 0 .259-.86c.067-.322.119-.683.156-1.08.062.32.139.647.23.979.093.332.207.685.342 1.058l1.375 3.899h3.01L.941-4.646h-2.907z" style="fill:#ca006c;fill-opacity:1;fill-rule:nonzero;stroke:none" transform="translate(442.825 244.894)"/><path d="M0 0c0 .713-.216 1.279-.646 1.705-.431.424-1.009.635-1.736.635-.725 0-1.301-.209-1.725-.631-.425-.422-.637-.99-.637-1.709 0-.713.212-1.281.637-1.709.424-.428 1-.641 1.725-.641.72 0 1.297.213 1.731.641C-.218-1.281 0-.713 0 0m2.676-.018c0-1.341-.475-2.457-1.426-3.345C.3-4.254-.905-4.699-2.363-4.699c-1.471 0-2.683.445-3.637 1.336-.953.888-1.431 2.004-1.431 3.345 0 1.334.481 2.452 1.441 3.348.96.895 2.169 1.344 3.627 1.344 1.465 0 2.671-.442 3.618-1.326.947-.885 1.421-2.006 1.421-3.366" style="fill:#ca006c;fill-opacity:1;fill-rule:nonzero;stroke:none" transform="translate(462.965 248.57)"/><path d="M0 0v6.746h-1.173V8.73H0v1.969c0 1.174.279 2.016.84 2.522.559.508 1.482.761 2.768.761.142 0 .306-.013.495-.039.187-.027.431-.076.733-.148v-2.02c-.16.082-.314.145-.462.182a1.792 1.792 0 0 1-.461.059c-.462 0-.791-.118-.987-.352-.197-.234-.296-.639-.296-1.215V8.73h1.68V6.746H2.63V0Z" style="fill:#ca006c;fill-opacity:1;fill-rule:nonzero;stroke:none" transform="translate(467.95 244.218)"/><path d="M0 0v13.029h7.956V10.68H2.889V8.002h5.067V5.633H2.889V0Z" style="fill:#ca006c;fill-opacity:1;fill-rule:nonzero;stroke:none" transform="translate(479.919 244.218)"/><path d="M489.98 252.948h2.621v-8.73h-2.621zm-.231 3.588c0 .402.151.75.453 1.041.301.291.661.436 1.079.436.425 0 .789-.143 1.094-.432a1.38 1.38 0 0 0 .457-1.045 1.4 1.4 0 0 0-.457-1.051 1.527 1.527 0 0 0-1.094-.435c-.418 0-.778.148-1.079.445-.302.297-.453.643-.453 1.041M495.37 258.013h2.621v-13.795h-2.621z" style="fill:#ca006c;fill-opacity:1;fill-rule:nonzero;stroke:none"/><path d="M0 0h-2.631v8.73H0V7.359c.431.577.891.998 1.38 1.266.488.268 1.044.4 1.665.4.751 0 1.362-.148 1.833-.445.471-.297.804-.744 1.001-1.346.418.596.893 1.041 1.426 1.342a3.51 3.51 0 0 0 1.749.449c.639 0 1.182-.115 1.629-.343a2.409 2.409 0 0 0 1.039-1.028c.129-.25.221-.531.276-.845.056-.315.083-.793.083-1.434V0h-2.63v4.316c0 1.063-.112 1.768-.337 2.118-.224.351-.617.525-1.176.525-.678 0-1.168-.242-1.473-.729-.305-.488-.457-1.283-.457-2.386V0h-2.63v4.316c0 1.026-.105 1.721-.315 2.082-.209.362-.569.543-1.079.543-.696 0-1.2-.244-1.513-.734C.156 5.719 0 4.93 0 3.844Z" style="fill:#ca006c;fill-opacity:1;fill-rule:nonzero;stroke:none" transform="translate(503.253 244.218)"/><path d="m0 0-1.514 4.211a6.867 6.867 0 0 0-.166.641c-.067.302-.138.673-.212 1.111a41.01 41.01 0 0 0-.231-1.135 8.452 8.452 0 0 0-.166-.672L-3.747 0Zm-8.603-4.957 5.142 13.029h3.304L5.058-4.957H1.772L.674-2.189H-4.56l-.941-2.768z" style="fill:#ca006c;fill-opacity:1;fill-rule:nonzero;stroke:none" transform="translate(530.877 249.175)"/><path d="M0 0c.265.848.645 1.484 1.14 1.904.495.422 1.109.633 1.841.633.166 0 .44-.029.822-.09l.166-.025-.398-2.725a3.493 3.493 0 0 1-.594.174 3.49 3.49 0 0 1-.633.057c-.8 0-1.375-.198-1.726-.592-.35-.395-.526-1.055-.526-1.981v-3.843h-2.63v8.73H.056z" style="fill:#ca006c;fill-opacity:1;fill-rule:nonzero;stroke:none" transform="translate(539.664 250.706)"/><path d="M0 0v6.746h-1.265V8.73H0v2.903h2.63V8.73h1.265V6.746H2.63V0Z" style="fill:#ca006c;fill-opacity:1;fill-rule:nonzero;stroke:none" transform="translate(545.146 244.218)"/><path d="m0 0 2.021 1.004c.068-.338.25-.604.545-.801.295-.195.662-.293 1.099-.293.431 0 .769.076 1.015.227.246.152.369.361.369.627 0 .422-.437.775-1.311 1.06-.27.088-.486.162-.645.223-1.066.385-1.802.773-2.211 1.166a1.927 1.927 0 0 0-.614 1.449c0 .856.347 1.547 1.043 2.076.695.528 1.612.791 2.751.791.812 0 1.514-.156 2.109-.47a2.87 2.87 0 0 0 1.296-1.336l-1.929-.926a1.336 1.336 0 0 1-.544.742c-.259.17-.582.254-.97.254-.387 0-.701-.078-.941-.23-.24-.155-.359-.358-.359-.606 0-.434.596-.838 1.79-1.211.141-.041.249-.074.323-.098.99-.314 1.695-.681 2.113-1.099.419-.418.628-.951.628-1.598 0-.865-.348-1.555-1.043-2.064-.695-.51-1.634-.766-2.815-.766-.936 0-1.734.168-2.395.502C.663-1.041.222-.582 0 0" style="fill:#ca006c;fill-opacity:1;fill-rule:nonzero;stroke:none" transform="translate(549.78 245.749)"/><path d="m0 0 5.646 15.312h-60.401v-71.779h17.759v29.783h27.149l5.678 15.398h-32.827V0Z" style="fill:#ca006c;fill-opacity:1;fill-rule:nonzero;stroke:none" transform="translate(493.185 323.65)"/><path d="M0 0h-21.228l-20.833-24.724V0h-17.757v-71.779h17.757v29.125l21.499-29.125h20.25l-27.062 38.863z" style="fill:#ca006c;fill-opacity:1;fill-rule:nonzero;stroke:none" transform="translate(356.298 338.961)"/><path d="m0 0 8.254 25.086L17.018 0Zm22.105 31.006-.951 2.472c-3.578 7.859-9.884 9.042-12.51 9.191h-9.865l-25.436-66.948-1.852-4.83h18.961l4.797 14.634h24.585l5.596-14.634h19.857z" style="fill:#ca006c;fill-opacity:1;fill-rule:nonzero;stroke:none" transform="translate(387.84 296.292)"/><path d="m0 0 8.254 25.086L17.016 0Zm22.94 31.006-.955 2.472c-3.576 7.859-9.885 9.042-12.509 9.191H-.389l-25.436-66.948-1.853-4.83h18.967l4.798 14.634h24.582l5.598-14.634h19.851z" style="fill:#ca006c;fill-opacity:1;fill-rule:nonzero;stroke:none" transform="translate(510.403 296.292)"/></g></svg>