<svg width="256" height="256" viewBox="0 0 256 256" fill="none" xmlns="http://www.w3.org/2000/svg">
<path d="M131.522 66.3297L131.558 66.2383L137.134 59.164L136.768 58.2317L125.672 32.0183L125.581 32H125.507H125.325L114.96 56.5683L113.79 59.3285L114.21 59.9683L119.164 66.3297L119.219 66.5126C117.812 66.9878 117.556 67.39 117.556 69.0169V69.5653L132.929 69.4922C132.966 68.9438 133.002 68.5782 133.002 68.3771C133.021 67.5545 132.728 67.1341 131.522 66.3297ZM125.672 33.8463L125.946 33.7549L132.18 59.0178L131.905 59.4748L126.001 66.1835H125.672V33.8463ZM116.368 61.5404L114.704 59.3651L114.667 59.036L124.283 35.9667L124.392 35.8754C124.392 36.0947 124.356 36.241 124.356 36.2592C124.319 36.57 124.21 37.1367 123.972 38.0324L118.835 58.9995L125.05 66.1104V66.3297L120.371 66.5308L116.368 61.5404ZM132.18 68.9803L132.052 69.0352L129.072 68.8524L125.471 68.7792L122.418 68.8524L118.451 69.1266C118.36 68.7975 118.342 68.6147 118.342 68.4685C118.342 68.2857 118.378 68.1029 118.488 67.9201C118.689 67.5545 119.183 67.1889 119.475 67.1889L123.332 66.9696L127.665 66.933L130.772 67.0792C131.905 67.1341 132.271 67.4083 132.271 68.2491C132.253 68.5233 132.216 68.761 132.18 68.9803Z" fill="#00539B"/>
<path d="M171.92 96.7414C171.883 96.7963 172.157 97.1436 172.432 97.3995C173.291 98.2404 173.857 98.4781 174.223 98.4781C174.607 98.4781 174.899 98.2221 175.247 97.8748C175.813 97.2899 176.106 96.6318 176.106 96.0103C176.106 95.4619 175.887 94.9135 175.375 94.4199C175.119 94.164 174.918 93.9995 174.79 94.0177C174.698 94.0177 174.534 94.0726 174.26 94.3468L171.92 96.7414L171.719 96.5587L171.92 96.7597C171.92 96.7415 171.92 96.7232 171.92 96.7414ZM54.3066 139.846L57.6153 140.248C57.6336 140.248 57.6335 140.248 57.6335 140.248C57.6518 140.248 57.6701 140.248 57.7432 140.083C57.7981 139.919 57.8346 139.663 57.8712 139.425C57.9077 139.114 57.926 138.822 57.926 138.584C57.8712 137.012 57.3593 137.067 56.5367 136.921C56.3905 136.903 56.2443 136.884 56.098 136.884C54.8002 136.903 53.8862 137.561 53.7216 138.913C53.7034 139.06 53.6851 139.206 53.6851 139.315C53.7033 139.645 53.6302 139.718 54.3066 139.846ZM125.58 68.8828C82.7319 68.8828 48 103.615 48 146.445C48 189.275 82.7319 224.006 125.58 224.006C168.428 224.006 203.142 189.275 203.142 146.445C203.142 103.615 168.428 68.8828 125.58 68.8828ZM194.294 124.216C194.294 124.125 194.294 124.015 194.294 123.924C194.294 123.631 194.294 123.193 194.751 123.046C194.788 123.028 194.843 123.028 194.879 123.028C195.154 123.028 195.373 123.247 195.446 123.522C195.629 124.198 195.848 125.35 196.488 127.799C196.781 128.914 197.128 130.011 197.512 131.437C197.53 131.492 197.53 131.546 197.53 131.601C197.53 131.894 197.329 132.113 197.11 132.168L195.556 132.643C195.446 132.68 195.208 132.79 194.953 132.79C194.77 132.808 194.459 132.662 194.404 132.369C194.386 132.314 194.386 132.259 194.386 132.205C194.386 131.93 194.605 131.766 194.751 131.693C194.916 131.62 195.08 131.565 195.227 131.473C195.519 131.309 195.757 131.126 195.775 130.395C195.775 130.102 195.72 129.737 195.611 129.28C195.428 128.567 195.3 128.11 195.19 127.872C195.062 127.635 195.062 127.671 194.916 127.653C194.806 127.653 194.605 127.689 194.313 127.781L192.064 128.366C191.808 128.421 191.644 128.475 191.589 128.512C191.552 128.549 191.589 128.512 191.571 128.567C191.571 128.622 191.589 128.75 191.644 128.932L191.9 129.938C192.119 130.797 192.814 130.834 193.344 130.943C193.49 130.998 193.71 130.98 193.837 131.291C193.837 131.309 193.874 131.382 193.874 131.492C193.874 131.748 193.655 131.949 193.326 132.04L190.51 132.899C190.401 132.936 190.145 133.045 189.871 133.064C189.67 133.082 189.359 132.936 189.304 132.643C189.286 132.607 189.286 132.57 189.286 132.534C189.377 132.003 189.798 131.985 190.072 131.766C190.383 131.565 190.602 131.345 190.602 130.907C190.602 130.797 190.584 130.651 190.547 130.486L190.236 129.298C190.127 128.932 190.127 128.932 190.072 128.932C190.072 128.932 190.053 128.932 190.035 128.932C189.926 128.932 189.67 129.006 189.267 129.115L187.22 129.645C186.8 129.755 186.471 129.828 186.288 129.938C186.105 130.048 186.068 130.102 186.05 130.358C186.05 130.468 186.068 130.614 186.123 130.815C186.909 133.722 188.061 133.886 188.756 134.142C188.975 134.215 189.267 134.288 189.359 134.618C189.359 134.654 189.377 134.691 189.377 134.727C189.377 134.965 189.158 135.166 188.865 135.221C188.609 135.294 188.353 135.312 188.098 135.312C186.928 135.312 185.703 134.654 185.374 133.429C184.734 130.998 184.551 130.011 184.35 129.225C184.222 128.75 183.985 128.092 183.747 127.196C183.729 127.123 183.71 127.05 183.71 126.976C183.692 126.794 183.82 126.556 184.039 126.519C184.094 126.501 184.167 126.483 184.24 126.483C184.697 126.501 184.807 126.903 184.917 127.05C185.045 127.232 185.118 127.342 185.538 127.36C185.703 127.36 185.922 127.324 186.196 127.269L193.691 125.313C194.276 125.094 194.276 124.746 194.294 124.216ZM185.648 108.13C186.014 107.911 186.068 107.709 186.087 107.453C186.087 107.088 185.849 106.649 185.849 106.21C185.831 106.046 185.922 105.79 186.123 105.699C186.196 105.662 186.288 105.625 186.379 105.625C186.599 105.625 186.8 105.772 186.928 105.973C187.275 106.576 187.805 107.636 189.066 109.812C189.651 110.817 190.273 111.786 191.004 113.047C191.059 113.139 191.095 113.248 191.095 113.358C191.095 113.577 190.967 113.76 190.821 113.851L189.45 114.729C189.322 114.802 189.085 115.04 188.719 115.058C188.555 115.058 188.335 114.967 188.244 114.784C188.189 114.711 188.171 114.601 188.171 114.51C188.226 114.071 188.555 113.979 188.737 113.778C188.957 113.596 189.121 113.394 189.121 113.011C189.121 112.7 188.993 112.206 188.591 111.512C187.951 110.36 187.659 110.068 187.567 110.104C187.494 110.104 187.275 110.195 186.928 110.397L184.917 111.548C184.643 111.694 184.496 111.822 184.496 111.841C184.496 111.859 184.533 111.987 184.661 112.206L185.173 113.102C185.502 113.65 185.886 113.705 186.306 113.724C186.525 113.724 186.727 113.687 186.909 113.687C187.037 113.687 187.238 113.687 187.385 113.906C187.403 113.943 187.476 114.034 187.494 114.199C187.494 114.436 187.33 114.601 187.092 114.747L184.606 116.319C184.478 116.392 184.222 116.648 183.838 116.667C183.674 116.685 183.454 116.575 183.363 116.392C183.326 116.319 183.29 116.228 183.29 116.155C183.326 115.753 183.619 115.625 183.802 115.369C184.003 115.131 184.167 114.912 184.167 114.601C184.167 114.436 184.113 114.217 183.966 113.961L183.363 112.901C183.18 112.59 183.125 112.59 183.125 112.59C183.089 112.572 182.833 112.7 182.394 112.974L180.566 114.034C179.89 114.4 179.579 114.619 179.616 114.857C179.616 114.967 179.671 115.168 179.835 115.442C181.371 118.038 182.522 117.891 183.253 117.946C183.491 117.964 183.783 117.964 183.966 118.257C184.003 118.312 184.021 118.385 184.021 118.458C184.021 118.677 183.875 118.842 183.637 118.97C183.162 119.244 182.614 119.372 182.065 119.372C181.188 119.372 180.292 118.988 179.798 118.166C178.537 115.99 178.098 115.076 177.696 114.382C177.459 113.961 177.038 113.376 176.581 112.572C176.508 112.462 176.471 112.334 176.471 112.206C176.471 112.06 176.545 111.896 176.691 111.822C176.801 111.768 176.91 111.731 177.02 111.731C177.367 111.749 177.495 111.969 177.623 112.078C177.769 112.206 177.861 112.279 178.062 112.279C178.245 112.279 178.519 112.206 178.939 111.969L185.648 108.13ZM101.176 198.926L97.4838 196.97L98.2699 195.49L101.962 197.427L101.176 198.926ZM102.511 197.702L106.35 199.329L105.692 200.882L101.853 199.255L102.511 197.702ZM97.9957 194.576L97.7946 194.521L95.5279 193.095L94.3945 192.309L92.0913 190.646L89.4589 188.452L87.1374 186.167L87.046 186.057L87.3202 185.874L103.644 178.892L104.028 178.764L103.937 179.093L97.9957 194.576ZM123.149 138.347L121.924 137.597L121.485 138.968L116.202 130.029L118.981 128.731L120.297 128.293L123.149 138.347ZM120.992 128.165C122.399 127.708 122.893 127.635 125.032 127.543L125.178 127.689L125.288 137.944L124.264 136.976L123.588 138.127L121.12 128.53L120.992 128.165ZM111.011 134.91L112.09 133.667L112.309 133.74L119.42 140.796L118.067 140.833L118.542 142.131L109.549 136.738C110.079 136.427 109.713 136.72 110.371 135.842L111.011 134.91ZM110.846 131.766C111.34 131.272 111.834 130.815 112.364 130.358C112.382 130.358 112.382 130.34 112.4 130.34C112.4 130.34 112.419 130.34 112.419 130.322L112.437 130.303C112.437 130.303 112.437 130.303 112.455 130.285C112.455 130.285 112.455 130.285 112.473 130.285C112.473 130.285 112.473 130.285 112.492 130.267C112.492 130.267 112.492 130.267 112.51 130.267C112.51 130.267 112.51 130.267 112.528 130.249C112.528 130.249 112.528 130.249 112.546 130.23C112.546 130.23 112.547 130.23 112.565 130.212C112.565 130.212 112.565 130.212 112.583 130.212C112.583 130.212 112.583 130.212 112.601 130.212L112.62 130.194C112.62 130.194 112.62 130.194 112.638 130.194C112.656 130.194 112.656 130.175 112.674 130.175C113.461 129.554 114.283 128.987 115.142 128.475L115.873 129.718C114.411 130.578 113.058 131.62 111.87 132.844L110.846 131.766ZM116.989 146.152L106.935 146.17L107.044 144.891L107.501 141.984L108.031 142.094L117.244 144.544L116.093 145.165L116.989 146.152ZM106.861 141.527L105.472 141.162C105.783 139.974 106.203 138.84 106.697 137.743C106.697 137.725 106.715 137.707 106.715 137.689C106.715 137.67 106.733 137.652 106.733 137.634C106.733 137.615 106.752 137.597 106.752 137.579C106.752 137.561 106.77 137.542 106.77 137.524V137.506C106.77 137.487 106.788 137.487 106.788 137.469C106.788 137.469 106.788 137.469 106.788 137.451C106.788 137.433 106.807 137.433 106.807 137.414C106.807 137.414 106.807 137.414 106.807 137.396C106.807 137.378 106.825 137.359 106.825 137.359C106.825 137.359 106.825 137.36 106.825 137.341C106.825 137.323 106.843 137.323 106.843 137.305C106.843 137.305 106.843 137.305 106.843 137.286C106.843 137.286 106.843 137.268 106.861 137.268C106.861 137.268 106.861 137.268 106.861 137.25C106.861 137.25 106.861 137.25 106.861 137.232C106.861 137.232 106.861 137.213 106.88 137.213C106.88 137.213 106.88 137.213 106.88 137.195C106.88 137.195 106.88 137.195 106.88 137.177V137.158C106.88 137.158 106.88 137.158 106.88 137.14V137.122C106.88 137.122 106.88 137.104 106.898 137.104C106.898 137.104 106.898 137.104 106.898 137.085C106.898 137.085 106.898 137.085 106.898 137.067C106.898 137.067 106.898 137.049 106.916 137.049C106.916 137.049 106.916 137.049 106.916 137.03C106.916 137.03 106.916 137.03 106.916 137.012V136.994C106.916 136.994 106.916 136.994 106.916 136.976C106.916 136.976 106.916 136.957 106.935 136.957C106.935 136.957 106.935 136.957 106.935 136.939C106.935 136.939 106.935 136.939 106.935 136.921C106.935 136.921 106.935 136.902 106.953 136.902C106.953 136.902 106.953 136.903 106.953 136.884C106.953 136.884 106.953 136.884 106.953 136.866V136.848C106.953 136.848 106.953 136.848 106.953 136.829C106.953 136.829 106.953 136.829 106.953 136.811V136.793V136.775C106.953 136.775 106.953 136.775 106.953 136.756C106.953 136.756 106.953 136.738 106.971 136.738C106.971 136.738 106.971 136.72 106.989 136.72C106.989 136.72 106.989 136.72 106.989 136.701C106.989 136.701 106.989 136.701 106.989 136.683C106.989 136.665 106.989 136.665 107.008 136.665C107.008 136.647 107.026 136.647 107.026 136.628C107.026 136.61 107.044 136.61 107.044 136.592C107.044 136.592 107.044 136.592 107.044 136.573C107.044 136.555 107.063 136.555 107.063 136.537C107.063 136.537 107.063 136.537 107.063 136.519C107.063 136.5 107.081 136.5 107.081 136.482V136.464C107.081 136.446 107.099 136.427 107.099 136.427C107.099 136.427 107.099 136.427 107.099 136.409C107.099 136.391 107.117 136.391 107.117 136.372C107.117 136.372 107.117 136.372 107.117 136.354C107.136 136.318 107.154 136.281 107.172 136.244L108.415 136.957C107.94 138.292 107.3 139.882 106.861 141.527ZM105.381 151.618V151.6C105.381 151.581 105.381 151.563 105.362 151.563V151.545C105.362 151.545 105.362 151.545 105.362 151.526V151.508V151.49V151.472C105.362 151.472 105.362 151.472 105.362 151.453V151.435C105.362 151.435 105.362 151.435 105.362 151.417C105.362 151.417 105.362 151.417 105.362 151.399C105.362 151.399 105.362 151.398 105.362 151.38V151.362C105.362 151.362 105.362 151.362 105.362 151.344C105.362 151.344 105.362 151.344 105.362 151.325C105.362 151.307 105.362 151.307 105.344 151.289C105.344 151.289 105.344 151.289 105.344 151.271C105.344 151.252 105.344 151.234 105.344 151.234V151.216C105.344 151.197 105.344 151.179 105.326 151.161V151.143C105.125 150.21 104.979 149.278 104.905 148.309C104.905 148.291 104.905 148.273 104.905 148.236C104.905 148.218 104.905 148.2 104.905 148.163V148.145C104.905 148.126 104.905 148.108 104.905 148.072C104.905 148.053 104.905 148.035 104.905 147.998V147.98C104.905 147.962 104.905 147.944 104.905 147.925V147.907C104.905 147.889 104.905 147.87 104.905 147.834V147.816C104.905 147.797 104.905 147.797 104.905 147.779C104.905 147.779 104.905 147.779 104.905 147.761V147.743V147.724C104.905 147.724 104.905 147.724 104.905 147.706C104.905 147.706 104.905 147.706 104.905 147.688V147.669C104.905 147.651 104.905 147.651 104.905 147.633C104.905 147.633 104.905 147.633 104.905 147.615V147.596V147.578V147.56C104.905 147.56 104.905 147.56 104.905 147.541C104.905 147.541 104.905 147.541 104.905 147.523V147.505V147.487V147.468V147.45C104.905 147.45 104.905 147.45 104.905 147.432V147.413C104.905 147.413 104.905 147.413 104.905 147.395V147.377C104.905 147.377 104.905 147.377 104.905 147.359V147.34C104.905 147.34 104.905 147.34 104.905 147.322V147.286C104.905 147.286 104.905 147.285 104.905 147.267V147.231C104.905 147.231 104.905 147.231 104.905 147.212C104.905 147.212 104.905 147.212 104.905 147.194V147.176V147.158C104.905 147.158 104.905 147.158 104.905 147.139V147.121V147.103V147.066C104.905 147.066 104.905 147.066 104.905 147.048V147.03V147.011V146.993V146.975V146.956V146.938V146.92V146.902V146.865V146.847V146.829V146.792V146.755V146.737V146.719V146.701V146.682V146.664V146.646H106.35C106.35 148.364 106.569 150.046 106.989 151.673L105.6 152.038C105.564 151.929 105.545 151.819 105.509 151.709C105.381 151.636 105.381 151.618 105.381 151.618ZM107.245 135.678L107.008 135.623L83.1889 121.748L82.7502 121.31L109.549 131.949L109.75 132.168L109.092 133.045L107.245 135.678ZM91.031 129.792C91.2321 129.792 91.36 129.846 91.7805 130.212L104.357 140.577L103.9 140.54L74.8533 132.808L74.378 132.698L75.1275 132.552L90.8299 129.846C90.8848 129.828 90.9762 129.792 91.031 129.792ZM104.028 142.021C104.266 141.984 104.485 141.984 104.631 141.984C104.723 141.984 104.759 141.984 104.814 142.094L104.668 142.88L104.394 145.768V146.28L104.302 146.372L74.0489 146.481C74.6522 146.28 75.2737 146.207 75.6576 146.134L104.028 142.021ZM104.595 152.057L104.156 152.185L88.0879 156.608L74.7436 160.136L75.2188 159.661L88.1428 149.534L104.595 152.057ZM105.125 152.806L105.271 152.77L106.368 155.511L107.081 157.193L82.6588 171.561L92.9504 162.823L105.125 152.806ZM106.807 147.87L106.825 146.701L116.989 146.664L116.075 147.651L117.135 148.401L107.702 151.124H107.318L107.154 150.74L106.807 147.87ZM117.226 148.821L116.623 150.101L117.848 150.612L109.274 155.658L109.128 155.475L107.849 152.897L107.593 152.038L107.41 151.746L117.226 148.821ZM117.409 144.05L107.611 141.454L107.666 141.363C108.123 139.608 108.342 139.005 109.238 137.378C109.512 137.396 118.104 142.46 118.104 142.46L116.696 142.898L117.409 144.05ZM110.17 130.888L88.5632 109.026L88.1793 108.532L104.174 115.095L110.316 130.76L110.17 130.888ZM93.6816 124.691C93.6816 124.71 93.6999 124.71 93.6999 124.728C92.7859 124.509 91.945 124.161 91.0493 123.832C89.203 123.119 87.375 122.407 85.5287 121.694C83.6825 120.981 81.8545 120.268 80.0082 119.555C79.4781 119.354 78.0888 118.732 78.0888 118.732L78.3813 118.202C78.3813 118.202 80.648 114.546 82.0007 112.791C82.6771 111.896 83.3169 110.908 84.0846 110.086C84.5965 109.537 86.132 107.947 86.132 107.947L86.589 107.545C86.6073 107.545 91.3783 119.098 93.6816 124.691ZM78.4178 119.317L90.2633 129.006L90.3546 129.134L90.2084 129.261L72.6231 132.186L72.6414 132.095L73.464 129.134L74.4145 126.446L76.2608 122.114L77.7598 119.262L77.9426 118.97L78.4178 119.317ZM73.5737 133.045L87.0277 143.428V143.648C86.9729 143.684 86.9363 143.703 86.8997 143.703C86.7535 143.757 70.9231 146.079 70.9231 146.079L70.7403 146.042L70.8499 142.734L70.9048 142.514L71.1059 139.663L71.636 136.025L72.4769 132.424C72.55 132.424 73.007 132.625 73.5737 133.045ZM70.7951 147.121L71.1242 147.066L86.9729 149.351V149.571L86.3148 150.137L72.7876 160.666H72.5865L72.0747 158.747L71.2155 153.848L70.7951 149.004V147.121ZM73.1898 161.032C73.2263 161.032 90.7751 163.536 90.7751 163.536V163.865L78.2899 174.139L78.0522 174.194L77.8146 173.81L76.4436 171.196L74.9812 167.978L73.5188 163.975L72.7693 161.123C72.9704 161.032 73.1349 161.032 73.1898 161.032ZM78.5275 174.577L93.5171 168.509L94.0289 168.326L93.8461 168.892L86.8632 185.728H86.6255L84.7793 183.772L82.3297 180.756L79.734 177.045L78.3082 174.76L78.5275 174.577ZM94.9978 167.942L95.1257 167.887L110.042 162.202L110.262 162.111L110.024 162.293L88.5084 184.065L94.9978 167.942ZM109.987 160.484C109.987 160.465 109.987 160.484 109.987 160.484C109.969 160.465 109.951 160.447 109.951 160.429C109.951 160.429 109.951 160.429 109.932 160.411L109.914 160.392C109.914 160.392 109.914 160.374 109.896 160.374C109.896 160.374 109.896 160.356 109.878 160.356C109.878 160.356 109.878 160.356 109.878 160.337C109.878 160.337 109.878 160.337 109.859 160.337C109.859 160.337 109.859 160.319 109.841 160.319C109.841 160.319 109.841 160.319 109.823 160.301C109.823 160.283 109.805 160.283 109.786 160.264C109.786 160.264 109.786 160.264 109.768 160.246C109.311 159.698 108.872 159.131 108.47 158.546C108.452 158.528 108.452 158.528 108.434 158.509V158.491C108.434 158.473 108.415 158.473 108.415 158.455C108.415 158.455 108.415 158.455 108.415 158.436C108.415 158.418 108.397 158.418 108.397 158.4C108.397 158.4 108.397 158.381 108.379 158.381C108.379 158.381 108.379 158.381 108.379 158.363C108.379 158.363 108.379 158.363 108.36 158.345C108.36 158.345 108.36 158.345 108.36 158.327C108.36 158.327 108.36 158.327 108.36 158.308C108.36 158.308 108.36 158.308 108.36 158.29C108.36 158.29 108.36 158.29 108.342 158.272C108.342 158.272 108.342 158.272 108.342 158.253C108.342 158.253 108.342 158.235 108.324 158.235V158.217C108.324 158.217 108.324 158.199 108.306 158.199C108.306 158.199 108.306 158.18 108.287 158.18C108.287 158.18 108.287 158.18 108.287 158.162C108.287 158.144 108.269 158.144 108.269 158.126C108.269 158.126 108.269 158.107 108.251 158.107C108.251 158.107 108.251 158.089 108.232 158.089C108.232 158.089 108.232 158.071 108.214 158.071C108.196 158.052 108.196 158.034 108.178 158.016C107.995 157.723 107.812 157.431 107.647 157.138L108.891 156.425C109.731 157.906 110.773 159.259 111.962 160.484L110.938 161.489C110.536 161.087 110.262 160.794 109.987 160.484ZM111.34 158.93L109.823 156.882L109.549 156.279L118.14 150.978L117.939 152.404L119.347 152.495L112.437 159.716L112.016 159.551L111.34 158.93ZM112.802 160.063L119.621 152.897L119.676 154.122L120.974 153.903L116.093 162.714L115.618 162.531L113.259 160.758L112.656 160.209L112.802 160.063ZM119.712 140.412L112.4 133.137L112.857 132.735L115.764 130.34L115.837 130.413L121.065 139.279L119.657 138.968L119.712 140.412ZM120.005 125.185L112.108 95.2608L118.049 102.756L122.527 108.605L120.114 124.801L120.005 125.185ZM119.255 125.788L119.072 126.008L117.903 126.428L115.124 127.781L114.85 127.909L100.463 102.957L101.213 103.651L119.255 125.788ZM103.809 114.199L103.534 114.162L86.8815 107.271C87.0094 107.051 88.0697 105.955 89.1665 104.913L91.2504 103.121L94.6504 100.562L97.5752 98.6974L97.7763 98.8802L103.809 114.199ZM93.8095 100.324L92.8955 98.9168L96.387 96.6318L97.301 98.0393L93.8095 100.324ZM93.2977 100.69L90.0256 103.267L88.9836 101.951L92.2558 99.3738L93.2977 100.69ZM89.4772 103.724L86.4245 106.576L85.2728 105.351L88.3073 102.5L89.4772 103.724ZM86.004 106.996L83.2072 110.086L81.9641 108.971L84.761 105.881L86.004 106.996ZM82.805 110.579L80.2824 113.906L78.948 112.901L81.4706 109.574L82.805 110.579ZM79.8985 114.491L77.6866 118.019L76.2608 117.124L78.4727 113.596L79.8985 114.491ZM77.2845 118.677L75.3834 122.388L73.8844 121.62L75.7855 117.91L77.2845 118.677ZM75.0909 123.028L73.5188 126.885L71.965 126.245L73.5371 122.388L75.0909 123.028ZM73.2629 127.598L72.0382 131.583L70.4295 131.089L71.6725 127.104L73.2629 127.598ZM71.8371 132.333L70.9596 136.409L69.3144 136.062L70.1919 131.985L71.8371 132.333ZM70.8317 137.085L70.3015 141.217L68.6381 140.997L69.1682 136.866L70.8317 137.085ZM70.2284 142.149L70.0639 146.317L68.3822 146.244L68.5467 142.076L70.2284 142.149ZM70.0822 147.139L70.2833 151.307L68.6015 151.399L68.4004 147.231L70.0822 147.139ZM70.3381 151.856L70.8865 155.987L69.223 156.206L68.6746 152.075L70.3381 151.856ZM70.9779 156.59L71.8736 160.666L70.2284 161.032L69.3327 156.956L70.9779 156.59ZM72.1113 161.544L73.3543 165.529L71.7457 166.041L70.5026 162.056L72.1113 161.544ZM73.6468 166.315L75.2371 170.154L73.6833 170.794L72.093 166.936L73.6468 166.315ZM75.6027 170.94L77.5404 174.632L76.0597 175.4L74.1221 171.708L75.6027 170.94ZM77.8146 175.108L80.0448 178.636L78.6372 179.531L76.4071 176.003L77.8146 175.108ZM80.4469 179.202L82.9696 182.511L81.6351 183.535L79.1125 180.226L80.4469 179.202ZM83.4083 183.059L86.2051 186.149L84.9621 187.282L82.1652 184.193L83.4083 183.059ZM86.6987 186.624L89.7514 189.457L88.618 190.682L85.5653 187.849L86.6987 186.624ZM90.2998 189.914L93.5902 192.474L92.5665 193.808L89.2761 191.249L90.2998 189.914ZM111.029 162.44L111.157 162.385L112.345 163.317L114.74 165.054V165.383L100.683 189.987L111.029 162.44ZM109.64 180.628L119.548 168.399L119.749 168.216L119.694 168.545L112.729 194.923L111.87 197.427L109.567 180.994L109.64 180.628ZM118.451 166.297C118.433 166.297 118.433 166.297 118.451 166.297C118.433 166.297 118.433 166.297 118.451 166.297C118.433 166.297 118.433 166.297 118.433 166.278H118.414C118.414 166.278 118.414 166.278 118.396 166.278C118.396 166.278 118.396 166.278 118.378 166.278H118.36C118.36 166.278 118.36 166.278 118.341 166.278C118.341 166.278 118.341 166.278 118.323 166.278C118.323 166.278 118.323 166.278 118.305 166.278C118.305 166.278 118.305 166.278 118.286 166.278H118.268C118.268 166.278 118.268 166.278 118.25 166.278C118.25 166.278 118.25 166.278 118.232 166.278H118.213H118.195H118.177H118.158H118.14C118.122 166.278 118.122 166.26 118.104 166.26H118.085C117.08 165.858 116.111 165.383 115.179 164.853L115.91 163.61C117.372 164.469 118.944 165.127 120.59 165.584L120.151 166.845C119.566 166.681 118.999 166.498 118.451 166.297ZM116.586 163.079L121.321 154.323L121.979 155.438L123.167 155.091L120.59 164.743C118.798 164.213 118.177 163.975 116.586 163.079ZM123.716 154.981L124.465 156.023L125.434 155.256L125.342 165.438L123.917 165.401L121.248 164.907L123.716 154.981ZM120.553 127.689L120.169 126.3C120.937 126.081 121.741 125.916 122.546 125.807C122.564 125.807 122.582 125.807 122.6 125.788C122.619 125.788 122.637 125.788 122.655 125.788C122.674 125.788 122.692 125.788 122.71 125.788H122.728C122.747 125.788 122.765 125.788 122.783 125.788C122.783 125.788 122.783 125.788 122.802 125.788C122.802 125.788 122.802 125.788 122.82 125.788C122.838 125.788 122.856 125.788 122.856 125.788H122.875C122.893 125.788 122.911 125.788 122.911 125.788C122.911 125.788 122.911 125.788 122.93 125.788C122.948 125.788 122.966 125.788 122.966 125.788C122.966 125.788 122.966 125.788 122.984 125.788C122.984 125.788 122.984 125.788 123.003 125.788C123.021 125.788 123.021 125.788 123.039 125.788C123.039 125.788 123.039 125.788 123.057 125.788C123.057 125.788 123.057 125.788 123.076 125.788C123.094 125.788 123.112 125.788 123.112 125.788C123.112 125.788 123.112 125.788 123.131 125.788C123.149 125.788 123.149 125.788 123.167 125.788C123.167 125.788 123.167 125.788 123.185 125.788C123.185 125.788 123.185 125.788 123.204 125.788C123.222 125.788 123.222 125.788 123.222 125.788C123.222 125.788 123.222 125.788 123.24 125.788C123.24 125.788 123.24 125.788 123.259 125.788C123.277 125.788 123.277 125.788 123.295 125.788C123.295 125.788 123.295 125.788 123.313 125.788C123.313 125.788 123.313 125.788 123.332 125.788C123.332 125.788 123.332 125.788 123.35 125.788H123.368C123.368 125.788 123.368 125.788 123.387 125.788H123.405C123.405 125.788 123.405 125.788 123.423 125.788H123.441C123.441 125.788 123.441 125.788 123.46 125.788C123.46 125.788 123.46 125.788 123.478 125.788H123.496C123.496 125.788 123.496 125.788 123.514 125.788H123.533C123.533 125.788 123.533 125.788 123.551 125.788C123.551 125.788 123.551 125.788 123.569 125.788C123.569 125.788 123.569 125.788 123.588 125.788H123.606C123.606 125.788 123.606 125.788 123.624 125.788H123.642C123.642 125.788 123.642 125.788 123.661 125.788H123.679C123.679 125.788 123.679 125.788 123.697 125.788H123.716H123.734C123.734 125.788 123.734 125.788 123.752 125.788C123.752 125.788 123.77 125.788 123.752 125.788H123.77C123.77 125.788 123.77 125.788 123.789 125.788H123.807C123.807 125.788 123.807 125.788 123.825 125.788H123.844C123.844 125.788 123.844 125.788 123.862 125.788H123.88H123.898C123.898 125.788 123.898 125.788 123.917 125.788H123.935H123.953H123.971H123.99C123.99 125.788 123.99 125.788 124.008 125.788H124.026H124.045H124.063C124.063 125.788 124.063 125.788 124.081 125.788H124.099H124.118C124.118 125.788 124.118 125.788 124.136 125.788H124.154C124.154 125.788 124.154 125.788 124.173 125.788H124.191H124.209H124.227C124.227 125.788 124.227 125.788 124.246 125.788H124.264H124.282C124.282 125.788 124.282 125.788 124.301 125.788H124.319H124.337H124.355C124.355 125.788 124.355 125.788 124.374 125.788H124.392H124.41H124.428H124.447H124.465C124.465 125.788 124.465 125.788 124.483 125.788H124.502H124.52H124.538H124.556H124.575H124.593H124.611H124.63H124.648H124.666C124.666 125.788 124.666 125.788 124.684 125.788H124.703H124.721H124.739H124.758H124.776H124.794H124.812H124.831H124.849H124.867H124.885H124.922H124.94H124.959H124.977H125.032H125.05H125.068H125.087C125.087 125.788 125.087 125.788 125.105 125.788H125.123H125.178H125.196H125.233H125.342H125.361H125.434V127.232H125.397C123.88 127.031 122.18 127.251 120.553 127.689ZM121.028 90.4349L120.955 88.7531L125.123 88.552L125.215 90.2338L121.028 90.4349ZM125.58 124.801L125.672 93.4876V92.4274L125.873 93.4511L130.662 125.679L130.406 125.514L128.743 125.148L125.69 124.911L125.58 124.801ZM180.968 141.162L180.42 137.03L182.083 136.811L182.632 140.942L180.968 141.162ZM182.705 141.765L182.906 145.933L181.224 146.006L181.023 141.838L182.705 141.765ZM131.905 140.376L138.833 133.411L139.071 133.301L140.771 135.458L141.502 136.555L133.02 141.747L133.203 140.522L131.905 140.376ZM146.108 139.791L145.907 139.846L145.761 139.571L144.061 135.568L167.77 121.511L168.337 121.237L154.938 132.68L146.108 139.791ZM175.759 132.662L176.398 132.479L176.033 132.716L175.192 133.466L162.926 143.045L147.169 140.778L146.968 140.558L175.759 132.662ZM133.166 142.167L141.959 137.012L143.275 140.138L143.604 141.107L134.062 143.867L134.391 142.661L133.166 142.167ZM134.227 144.306L143.494 141.692L143.696 142.551L144.098 144.763L144.134 146.061L134.501 146.134L135.141 145.074L134.227 144.306ZM135.177 147.615L134.409 146.554L144.317 146.627C144.317 147.962 144.317 148.236 144.171 149.004C144.171 149.004 143.897 150.868 143.805 150.96L134.227 148.474L135.177 147.615ZM144.299 151.654L145.688 152.02C145.67 152.057 145.67 152.093 145.651 152.13C145.651 152.148 145.651 152.148 145.633 152.166V152.185C145.633 152.185 145.633 152.185 145.633 152.203V152.221C145.633 152.221 145.633 152.221 145.633 152.239C145.633 152.239 145.633 152.239 145.633 152.258C145.633 152.258 145.633 152.258 145.633 152.276V152.294V152.313V152.331V152.349V152.367V152.386C145.633 152.404 145.633 152.404 145.615 152.422C145.377 153.263 145.085 154.086 144.737 154.89C144.737 154.908 144.719 154.908 144.719 154.927V154.945C144.701 154.963 144.701 154.981 144.701 155C144.701 155.018 144.683 155.018 144.683 155.036V155.054C144.683 155.073 144.664 155.073 144.664 155.091V155.109C144.664 155.128 144.646 155.128 144.646 155.146V155.164C144.646 155.182 144.628 155.182 144.628 155.201C144.628 155.201 144.628 155.201 144.628 155.219C144.628 155.237 144.61 155.237 144.61 155.256V155.274C144.61 155.292 144.591 155.292 144.591 155.31V155.329C144.591 155.347 144.573 155.365 144.573 155.365V155.384C144.573 155.402 144.555 155.402 144.555 155.42V155.438C144.555 155.457 144.536 155.457 144.536 155.475C144.299 156.005 144.025 156.517 143.732 157.01L142.489 156.298C143.202 154.872 143.86 153.281 144.299 151.654ZM144.957 146.609V146.573C144.957 144.873 144.737 143.191 144.317 141.564L145.706 141.198C145.981 142.24 146.182 143.319 146.291 144.416C146.291 144.434 146.291 144.47 146.291 144.489C146.291 144.507 146.291 144.525 146.291 144.562C146.291 144.58 146.291 144.598 146.291 144.617V144.635C146.291 144.653 146.291 144.671 146.291 144.671C146.291 144.671 146.291 144.671 146.291 144.69V144.708C146.291 144.726 146.291 144.745 146.291 144.763V144.781C146.291 144.799 146.291 144.818 146.291 144.836V144.854C146.291 144.854 146.291 144.854 146.291 144.873C146.291 144.891 146.291 144.909 146.291 144.927V144.946V144.964V144.982V145.001C146.291 145.001 146.291 145.001 146.291 145.019C146.291 145.037 146.291 145.037 146.291 145.037V145.055V145.074V145.092V145.11C146.291 145.11 146.291 145.11 146.291 145.128V145.147C146.291 145.165 146.291 145.183 146.291 145.183C146.291 145.183 146.291 145.183 146.291 145.202C146.291 145.202 146.291 145.202 146.291 145.22V145.238C146.291 145.238 146.291 145.238 146.291 145.256V145.275V145.293C146.291 145.293 146.291 145.293 146.291 145.311C146.291 145.311 146.291 145.311 146.291 145.33V145.348V145.366V145.384C146.291 145.384 146.291 145.384 146.291 145.403V145.421C146.291 145.421 146.291 145.421 146.291 145.439V145.458V145.476C146.291 145.476 146.291 145.476 146.291 145.494C146.291 145.494 146.291 145.494 146.291 145.512V145.531V145.549V145.567C146.291 145.567 146.291 145.567 146.291 145.585V145.604V145.622V145.64C146.291 145.64 146.291 145.64 146.291 145.659V145.677V145.695C146.291 145.695 146.291 145.695 146.291 145.713V145.732V145.75V145.768V145.787C146.291 145.787 146.291 145.787 146.291 145.805C146.291 145.805 146.291 145.805 146.291 145.823V145.86C146.291 145.86 146.291 145.86 146.291 145.878C146.291 145.878 146.291 145.878 146.291 145.896V145.915V145.951C146.291 145.951 146.291 145.951 146.291 145.969V145.988V146.024C146.291 146.024 146.291 146.024 146.291 146.042V146.079V146.097V146.116V146.134V146.152V146.17C146.291 146.17 146.291 146.17 146.291 146.189V146.207V146.225V146.244V146.262V146.28V146.298V146.317V146.353V146.372V146.39V146.445V146.463V146.481V146.499V146.536V146.591L144.957 146.609ZM156.199 124.856L141.666 130.632L141.246 130.724C141.776 129.92 162.853 108.623 162.853 108.623L163.292 108.24L156.821 124.509L156.199 124.856ZM143.092 135.239C143.111 135.239 143.111 135.239 143.092 135.239C143.111 135.257 143.111 135.276 143.111 135.276C143.111 135.276 143.111 135.276 143.111 135.294C143.111 135.312 143.129 135.312 143.129 135.33C143.129 135.33 143.129 135.349 143.147 135.349C143.147 135.349 143.147 135.349 143.147 135.367C143.147 135.367 143.147 135.367 143.147 135.385C143.147 135.385 143.147 135.404 143.165 135.404C143.165 135.404 143.165 135.404 143.165 135.422C143.165 135.44 143.184 135.44 143.184 135.458C143.184 135.458 143.184 135.458 143.184 135.477C143.184 135.495 143.202 135.495 143.202 135.513C143.33 135.714 143.44 135.915 143.568 136.116L142.325 136.829C141.484 135.349 140.46 133.996 139.254 132.771L140.277 131.766C141.392 132.844 142.306 133.996 143.092 135.239ZM134.556 150.174L134.062 148.912L143.696 151.526L143.513 152.093L142.654 154.524L142.05 155.713L141.74 155.548L133.166 150.649L134.556 150.174ZM144.061 157.358L144.335 157.449L162.524 167.924L169.324 171.927H169.141L141.685 161.032L141.538 160.904L141.977 160.337L144.061 157.358ZM159.453 162.586L146.474 152.038L147.644 152.404L176.545 160.045L176.179 160.264L159.672 162.677L159.453 162.586ZM146.62 151.143L146.474 150.996L146.748 149.333L146.931 146.536L147.077 146.426L177.385 146.28L177.751 146.335L162.853 148.657L146.62 151.143ZM164.26 143.227L164.114 143.118L165.01 142.313L178.501 131.912L178.665 131.894L179.177 133.886L180.109 138.877L180.53 143.392V145.384L180.402 145.531L164.26 143.227ZM178.409 131.583L160.513 129.079V128.786L172.907 118.513L173.145 118.476L173.528 119.116L175.594 123.083L177.495 128L178.482 131.126L178.592 131.565L178.409 131.583ZM172.688 118.275C172.633 118.312 172.45 118.403 172.157 118.513L158.009 124.18H157.808L157.99 123.448L164.37 107.783L164.644 107.124C165.339 107.801 165.485 107.965 166.015 108.587L168.337 111.274L170.896 114.765L172.962 118.019C172.834 118.147 172.742 118.239 172.688 118.275ZM163.895 106.942L147.388 113.961V113.632L153.256 98.3867L153.329 98.4232L153.75 98.6608L156.875 100.672L158.374 101.75L161.537 104.273L163.091 105.699L164.224 106.759L163.895 106.942ZM140.168 130.34L139.93 130.523L139.784 130.377L136.384 127.817L150.477 103.121L150.934 102.5L140.168 130.34ZM138.504 132.863L131.539 140.175L131.503 138.95L130.296 139.114L135.195 130.249L138.504 132.863ZM134.172 130.852L129.785 139.005L129.401 137.634L128.194 138.273L130.644 128.384L131.393 128.567L134.464 129.828C134.464 129.92 134.556 129.865 134.556 129.938C134.556 130.102 134.409 130.395 134.172 130.852ZM131.466 154.031L131.631 152.916C131.722 152.916 138.614 159.789 138.614 159.789L138.632 160.081L138.029 160.721L136.676 161.8C136.292 162.092 135.78 162.641 135.268 162.805L130.168 154.104L131.466 154.031ZM139.29 160.392L140.314 161.416C139.564 162.184 138.742 162.878 137.883 163.518C137.864 163.536 137.846 163.536 137.828 163.555C137.809 163.555 137.809 163.573 137.791 163.573C137.791 163.573 137.791 163.573 137.773 163.573C137.755 163.573 137.755 163.591 137.736 163.591C137.736 163.591 137.718 163.591 137.718 163.61H137.7C137.7 163.61 137.7 163.61 137.681 163.61C137.681 163.61 137.681 163.61 137.663 163.628C137.663 163.628 137.645 163.628 137.645 163.646C137.645 163.646 137.645 163.646 137.627 163.646C137.627 163.646 137.627 163.646 137.608 163.646C137.608 163.646 137.59 163.646 137.59 163.664C137.59 163.664 137.59 163.664 137.572 163.664C137.553 163.664 137.553 163.683 137.535 163.683C137.535 163.683 137.517 163.683 137.517 163.701C137.499 163.701 137.499 163.719 137.48 163.719C137.48 163.719 137.462 163.719 137.462 163.737C136.987 164.067 136.512 164.377 136.018 164.67L135.287 163.427C136.731 162.641 138.084 161.599 139.29 160.392ZM140.204 158.765L139.327 159.752L131.96 152.587L133.294 152.331L133.02 151.069L141.941 156.334L140.204 158.765ZM141.1 162.348C141.191 162.348 141.374 162.494 141.63 162.769L162.615 183.754L162.816 184.083L162.615 184.047L147.096 177.941L146.986 177.795L141.081 162.385C141.063 162.348 141.1 162.348 141.1 162.348ZM157.899 168.618L157.735 168.271L173.218 174.212L172.596 175.382L170.037 179.349L167.971 182.054L165.101 185.271H164.9L157.899 168.618ZM160.422 163.354L160.751 163.299L170.567 161.8L178.263 160.721H178.555L178.738 160.868L178.025 163.372L176.709 167.064L174.881 171.196L173.474 173.901L160.422 163.354ZM178.647 160.155L164.37 149.223L164.608 149.077L180.036 146.755L180.511 146.701L180.603 147.03L180.31 152.185L179.744 156.316L178.903 160.264L178.647 160.155ZM180.255 136.135L179.341 132.077L180.987 131.711L181.901 135.787L180.255 136.135ZM179.159 131.4L177.897 127.433L179.506 126.922L180.767 130.888L179.159 131.4ZM177.696 126.849L176.106 122.991L177.66 122.352L179.25 126.209L177.696 126.849ZM175.74 122.224L173.821 118.531L175.302 117.763L177.221 121.456L175.74 122.224ZM173.437 117.855L171.189 114.345L172.596 113.449L174.845 116.959L173.437 117.855ZM170.786 113.778L168.246 110.47L169.58 109.446L172.121 112.755L170.786 113.778ZM167.843 109.976L165.028 106.905L166.271 105.772L169.086 108.843L167.843 109.976ZM164.535 106.412L161.464 103.578L162.597 102.353L165.668 105.168L164.535 106.412ZM161.007 103.176L157.716 100.617L158.74 99.3006L162.03 101.86L161.007 103.176ZM157.204 100.251L153.713 97.9845L154.627 96.5769L158.118 98.8437L157.204 100.251ZM153.165 97.6737L149.49 95.7178L150.276 94.2371L153.951 96.1931L153.165 97.6737ZM150.532 96.8511L152.379 97.8382L153.037 98.2587L142.672 111.274L142.197 108.806L140.058 92.8295L140.588 92.9575L144.865 94.3651L147.077 95.2059L150.532 96.8511ZM141.904 112.097L141.52 112.645L131.704 124.893L139.345 95.2973L139.491 94.8586L139.985 97.9845L141.904 112.097ZM136.055 128.439L135.323 129.682C133.861 128.823 132.289 128.146 130.644 127.708L131.028 126.318C132.819 126.794 134.501 127.525 136.055 128.439ZM125.781 127.635L127.006 127.726L129.73 128.146L130.168 128.183L127.737 138.292L126.896 136.994L125.781 137.908V127.635ZM127.006 156.115L127.829 155.036L130.296 164.67C130.114 164.944 130.059 165.31 129.675 165.364L127.353 165.639L125.927 165.492L125.873 155.219L127.006 156.115ZM128.249 155L129.328 155.365L129.803 154.25L134.866 163.006L133.532 163.737L131.119 164.633L130.845 164.542L128.249 155ZM131.192 168.07L131.32 168.307L137.828 192.181L139.052 197.628L138.669 197.208L128.724 184.412L131.082 168.216L131.192 168.07ZM131.722 167.229L132.051 167.01L134.848 165.894L135.945 165.291L136.237 165.255L150.386 189.823L149.362 188.744L131.722 167.229ZM142.617 181.835L143.147 182.346L153.201 194.704L152.762 194.96L149.545 196.66L144.171 198.926L141.612 199.804L141.081 199.95L140.113 200.224L142.617 181.835ZM149.052 197.702L149.71 199.237L145.871 200.864L145.213 199.31L149.052 197.702ZM149.673 197.391L153.347 195.435L154.133 196.916L150.459 198.872L149.673 197.391ZM153.896 195.124L157.387 192.857L158.301 194.265L154.81 196.532L153.896 195.124ZM156.711 192.455L153.75 194.302L153.548 194.448L147.406 178.855L148.357 179.166L164.242 185.582L164.516 185.911C164.114 186.423 163.749 186.752 162.707 187.684L159.965 190.006L156.711 192.455ZM164.882 186.533L166.034 187.757L162.999 190.609L161.848 189.384L164.882 186.533ZM165.321 186.076L168.118 182.986L169.361 184.101L166.564 187.191L165.321 186.076ZM168.556 182.456L171.061 179.129L172.395 180.135L169.891 183.462L168.556 182.456ZM171.554 178.416L173.766 174.888L175.192 175.784L172.98 179.312L171.554 178.416ZM174.095 174.267L175.996 170.556L177.495 171.324L175.594 175.034L174.095 174.267ZM176.252 169.989L177.824 166.132L179.378 166.772L177.806 170.629L176.252 169.989ZM178.135 165.273L179.36 161.288L180.968 161.782L179.744 165.767L178.135 165.273ZM179.524 160.612L180.402 156.535L182.047 156.882L181.169 160.959L179.524 160.612ZM180.511 155.859L181.023 151.728L182.687 151.929L182.175 156.06L180.511 155.859ZM181.078 150.887L181.224 146.719L182.906 146.774L182.76 150.942L181.078 150.887ZM164.663 98.5329C164.754 98.4415 164.9 98.3684 165.028 98.3867C165.43 98.4232 165.613 98.6609 165.942 98.6426C166.18 98.6426 166.527 98.5329 167.057 98.0028L172.157 92.793C172.486 92.4457 172.578 92.1897 172.578 91.9704C172.596 91.4768 172.084 91.1295 172.011 90.5628C172.011 90.4349 172.066 90.3069 172.157 90.2155C172.249 90.1241 172.377 90.0693 172.505 90.0693C172.706 90.0693 172.852 90.1607 172.98 90.2886C173.547 90.837 173.583 90.9833 174.314 91.6962C175.101 92.4639 175.941 93.2134 176.746 93.9994C177.934 95.1694 178.354 96.2479 178.354 97.1436C178.354 98.2587 177.751 99.0264 177.422 99.3555C176.727 100.068 175.978 100.269 175.356 100.251C175.265 100.251 175.155 100.251 175.064 100.233C174.644 100.178 174.296 100.068 174.113 100.032C174.095 100.105 174.059 100.215 174.022 100.361C173.949 100.653 173.839 101.074 173.711 101.567C173.455 102.536 173.145 103.798 172.834 104.967C172.834 104.986 172.834 105.004 172.834 105.022C172.834 105.114 172.925 105.242 173.017 105.315C173.053 105.37 173.236 105.406 173.437 105.589C173.547 105.68 173.602 105.827 173.602 105.973C173.602 106.101 173.547 106.229 173.455 106.32C173.309 106.485 173.09 106.521 172.907 106.521C172.304 106.503 171.627 106.119 171.207 105.717C170.695 105.223 170.512 104.638 170.512 104.072C170.512 103.468 170.695 102.902 170.841 102.372L171.682 99.5383C171.755 99.3006 171.792 99.1178 171.792 98.9716C171.792 98.6974 171.682 98.5146 171.298 98.1307C171.152 97.9845 171.042 97.8931 170.969 97.8382C170.933 97.82 170.914 97.8017 170.914 97.8017C170.914 97.8017 170.896 97.82 170.878 97.82C170.823 97.8565 170.75 97.9662 170.64 98.0759L168.629 100.123C168.319 100.452 168.246 100.69 168.227 100.873C168.227 101.074 168.319 101.257 168.447 101.458C168.556 101.659 168.739 101.823 168.757 102.134C168.757 102.262 168.703 102.39 168.611 102.481C168.538 102.554 168.41 102.628 168.282 102.628C168.044 102.628 167.88 102.5 167.679 102.317C167.441 102.097 167.204 101.75 166.71 101.275C166.088 100.653 165.449 100.123 164.845 99.5383C164.791 99.4469 164.516 99.3189 164.498 98.9533C164.498 98.7705 164.571 98.6243 164.663 98.5329ZM150.971 84.439C151.976 82.5379 154.06 80.6368 156.711 80.6185C157.607 80.6185 158.557 80.8379 159.526 81.3497C160.586 81.8981 161.299 82.5928 161.793 83.1777C162.268 83.7444 162.615 84.2197 162.67 84.2197C162.688 84.238 162.688 84.238 162.707 84.238C162.762 84.2562 162.908 84.11 163.237 84.0734C163.31 84.0734 163.401 84.0917 163.456 84.1283C163.621 84.2014 163.712 84.4208 163.712 84.5487C163.712 84.8046 163.584 85.0057 163.511 85.1703L162.231 87.6198C162.158 87.766 161.994 87.9305 161.774 87.9305C161.628 87.9305 161.5 87.8757 161.372 87.8025C161.171 87.6746 161.189 87.5101 161.189 87.4187C161.189 87.1079 161.336 86.6143 161.336 85.9746C161.317 84.896 160.988 83.525 158.886 82.41C158.484 82.1906 157.972 82.0444 157.424 82.0444C156.272 82.0444 154.846 82.7025 153.548 85.1703C153.091 86.0477 152.762 87.181 152.762 88.2413C152.762 89.5026 153.201 90.6359 154.389 91.2575C155.23 91.6962 155.852 91.8607 156.29 91.8607C157.168 91.8607 157.479 91.2758 157.789 90.7091C158.027 90.2521 158.118 89.923 158.118 89.6671C158.118 89.2649 157.917 89.0822 157.661 88.8811C157.424 88.6617 157.058 88.6617 156.967 88.1499C156.967 88.0767 156.985 87.9854 157.022 87.9305C157.113 87.7112 157.351 87.5649 157.552 87.5832C157.917 87.6015 158.137 87.8208 158.265 87.8939C158.959 88.2595 159.617 88.68 160.275 89.0273C160.806 89.3015 161.336 89.5209 161.884 89.7951C162.012 89.8682 162.122 90.0144 162.122 90.1972C162.122 90.2886 162.103 90.38 162.049 90.4532C161.957 90.6725 161.72 90.8005 161.537 90.7822C161.317 90.7822 161.189 90.7091 161.062 90.7091C160.879 90.7091 160.623 90.7639 160.147 91.6231C159.837 92.208 159.672 92.6285 159.563 92.8661C159.471 93.0855 159.252 93.3231 158.978 93.3231C158.85 93.3231 158.722 93.3231 158.594 93.3231C156.894 93.3231 155.029 93.122 153.475 92.2994C150.989 91.0015 150.276 89.0456 150.276 87.4004C150.258 86.1025 150.678 84.9874 150.971 84.439ZM145.743 92.2812L149.582 93.9081L148.924 95.4618L145.085 93.8349L145.743 92.2812ZM140.972 90.6908L144.939 91.9704L144.427 93.5607L140.46 92.2812L140.972 90.6908ZM136.164 89.5574L140.222 90.4897L139.857 92.1166L135.799 91.1843L136.164 89.5574ZM139.656 92.665L139.144 93.4693L128.578 107.326C128.541 107.234 128.523 107.198 128.523 107.198C128.468 107.051 128.34 106.466 128.231 105.516L126.129 90.837L129.565 90.9284L130.9 91.0381C130.9 91.0381 132.527 91.2392 133.075 91.3306C133.696 91.422 135.707 91.7327 135.707 91.7327L139.656 92.665ZM126.129 90.2338L126.202 88.552L130.369 88.7531L130.296 90.4349L126.129 90.2338ZM135.086 91.0564L130.954 90.4897L131.174 88.8262L135.305 89.3929L135.086 91.0564ZM125.032 85.1154C125.032 84.9874 125.087 84.8412 125.196 84.7498C125.306 84.6584 125.416 84.6401 125.507 84.6401C125.672 84.6218 125.799 84.6218 125.891 84.5853C126.403 84.3659 126.567 83.4519 126.713 82.4283L127.518 77.5658L126.586 77.5292C126.421 77.5292 126.256 77.4744 126.129 77.3464C126.019 77.2002 126.019 77.0539 126.001 76.9625C126.001 76.9077 126.001 76.8711 126.001 76.8346C126.019 76.6883 126.001 76.5604 126.092 76.3959C126.183 76.2131 126.421 76.1399 126.586 76.1582C126.604 76.1582 126.622 76.1582 126.64 76.1582L127.719 76.2131C128.158 73.6904 129.401 71.2775 131.594 71.2409C131.631 71.2409 131.686 71.2409 131.722 71.2409C132.033 71.2409 132.819 71.3689 132.819 72.1915C132.819 72.2098 132.819 72.228 132.819 72.2463C132.782 72.7582 132.618 73.5442 131.85 73.599C131.85 73.599 131.832 73.599 131.814 73.599C131.411 73.5625 131.192 73.2883 131.009 73.1055C130.826 72.9044 130.698 72.7947 130.516 72.7947C130.443 72.813 130.461 72.7947 130.406 72.8861C130.351 72.9775 130.296 73.1786 130.242 73.4893C130.15 74.0743 130.095 74.9883 129.967 76.3045L131.302 76.3593L131.283 76.6335L131.302 76.3593C131.466 76.3593 131.612 76.3959 131.74 76.5238C131.868 76.6701 131.868 76.8163 131.868 76.926C131.868 76.9808 131.868 77.0357 131.868 77.0905C131.868 77.2002 131.868 77.3281 131.777 77.4927C131.686 77.6755 131.466 77.7486 131.283 77.7486C131.265 77.7486 131.247 77.7486 131.229 77.7486L129.748 77.6755L128.761 83.5616C128.34 86.2488 126.951 86.7058 126.33 86.7058C126.311 86.7058 126.293 86.7058 126.275 86.7058C126.183 86.7058 126.092 86.6875 126.092 86.7058C125.672 86.6692 125.013 86.2305 125.013 85.2434C125.032 85.1885 125.032 85.1519 125.032 85.1154ZM121.431 76.0303C121.504 76.0303 121.595 76.0303 121.668 76.0303C123.405 76.012 124.666 77.255 124.758 78.9916L124.483 79.0099L124.758 78.9916C124.758 79.1013 124.776 79.211 124.776 79.3389C124.776 81.4777 123.533 83.7444 121.083 83.9089C120.992 83.9089 120.9 83.9089 120.809 83.9089C118.433 83.9089 117.701 81.8799 117.628 80.6003C117.628 80.5089 117.61 80.3992 117.61 80.3078C117.628 77.8217 119.511 76.14 121.431 76.0303ZM120.041 88.8262L120.261 90.4897L116.129 91.0381L115.91 89.3746L120.041 88.8262ZM120.005 91.0929C120.937 90.9833 123.204 90.8736 123.204 90.8736L125.068 90.7822C125.05 90.965 125.013 91.3854 124.995 91.4403L122.674 107.527L121.723 106.448L111.559 92.8295L111.541 92.6833L115.398 91.7327C115.38 91.7327 118.506 91.2575 120.005 91.0929ZM114.996 89.5574L115.362 91.1843L111.303 92.1166L110.938 90.4897L114.996 89.5574ZM111.157 92.8844L108.47 111.274L98.0139 98.7522L97.9591 98.5329L100.08 97.2716L103.37 95.6447L107.721 93.9081L110.92 92.9392L111.157 92.8844ZM110.024 90.7273L110.536 92.3177L106.569 93.5973L106.057 92.0069L110.024 90.7273ZM105.326 92.2812L105.984 93.8167L102.145 95.4436L101.487 93.9081L105.326 92.2812ZM101.579 95.7361L97.9043 97.692L97.1182 96.2113L100.793 94.2554L101.579 95.7361ZM87.8137 83.3971C88.1062 83.2509 88.4718 83.1412 89.203 82.7573C89.8245 82.4465 90.446 82.1175 91.3052 81.6056C91.3966 81.5508 91.5063 81.5143 91.616 81.5143C91.8353 81.5143 91.9816 81.6788 92.0364 81.7885C92.073 81.8616 92.0913 81.9347 92.0913 82.0078C92.073 82.3186 91.8719 82.4465 91.7622 82.5928C91.6342 82.7207 91.5794 82.8304 91.5794 82.867C91.5794 82.8852 91.5794 82.9035 91.5977 82.9218C91.6525 83.0132 91.7256 83.1412 92.073 83.3971L94.7967 85.4627C95.016 85.6272 95.1806 85.7552 95.2902 85.81C95.3085 85.7369 95.3085 85.6273 95.3085 85.481L95.3999 82.3734C95.3999 82.3186 95.3999 82.2637 95.3999 82.2272C95.3999 81.7336 95.3268 81.6605 95.2719 81.5691C95.144 81.3315 95.0343 81.2949 94.815 81.2949C94.5042 81.2949 94.1386 81.4594 93.773 81.4777C93.6268 81.4777 93.3891 81.4046 93.2794 81.2035C93.2429 81.1304 93.2246 81.0573 93.2246 80.9659C93.2246 80.7282 93.4074 80.5637 93.5719 80.4723C93.8096 80.3626 94.102 80.2712 94.8698 79.8873C95.9849 79.3206 96.0946 79.1927 96.5333 78.9551C96.643 78.9002 96.7344 78.8637 96.8623 78.8637C97.0268 78.8454 97.1913 78.9733 97.2462 79.1013C97.2827 79.1744 97.3193 79.2658 97.301 79.3389C97.2645 79.7045 97.0817 79.7776 96.9354 80.0884C96.7892 80.3809 96.6247 80.8562 96.6064 81.7336L96.5515 86.3584C96.5698 86.724 96.5515 86.7241 96.8075 87.2542L97.9225 89.4478C98.2333 90.0327 98.4892 90.1241 98.7452 90.1241C99.129 90.1424 99.5495 89.8133 100.025 89.7768C100.226 89.7585 100.463 89.9048 100.555 90.1058C100.591 90.1607 100.61 90.2338 100.61 90.3069C100.555 90.7091 100.262 90.7639 100.061 90.8919C99.8968 90.9833 99.6774 91.0015 97.8312 91.9521C96.515 92.6285 96.1311 92.9027 95.6924 93.122C95.5462 93.1951 95.3999 93.2683 95.2171 93.2683H95.1988C95.0709 93.2683 94.9064 93.1769 94.8332 93.0489C94.7967 92.9758 94.7601 92.8844 94.7601 92.7747C94.815 92.3177 95.1623 92.208 95.3634 91.9887C95.601 91.7876 95.7655 91.6048 95.7655 91.2758C95.7655 91.093 95.7107 90.837 95.5279 90.508L94.5408 88.5886C94.2848 88.1133 94.2666 88.1316 93.9193 87.8757L89.3675 84.7133C89.0202 84.4756 88.746 84.4208 88.4901 84.4208C88.2159 84.4208 87.9965 84.4939 87.7224 84.5122C87.5578 84.5305 87.3019 84.4208 87.2105 84.2014C87.1739 84.1466 87.1556 84.0734 87.1556 83.982C87.2836 83.5799 87.5761 83.5616 87.8137 83.3971ZM71.9833 96.0834C73.1167 95.0414 73.9758 94.3285 75.749 92.7016C77.5221 91.0747 78.2899 90.2703 79.4232 89.2101C79.5146 89.1187 79.6426 89.0639 79.7706 89.0639C80.063 89.0821 80.1727 89.2649 80.2458 89.3198L81.3975 90.3069C81.4889 90.4166 81.9642 90.5811 82.0007 91.0929C82.0007 91.2392 81.9276 91.3854 81.8179 91.4768C81.7082 91.5682 81.562 91.6231 81.434 91.6231C80.8674 91.5682 80.5018 91.0747 79.9899 91.0929C79.7523 91.0929 79.4781 91.1843 79.1125 91.5499L78.0888 92.5005C77.8146 92.7381 77.7598 92.8661 77.7781 92.8844C77.7598 92.9026 77.8329 93.0672 78.0888 93.3231L83.1524 98.8254C83.5362 99.2458 83.847 99.3372 84.1395 99.3372C84.4319 99.3372 84.7244 99.2092 84.9986 99.063C85.2728 98.9168 85.4556 98.7523 85.7664 98.734C85.8578 98.734 86.004 98.7705 86.0771 98.8619C86.1868 98.9716 86.2599 99.1178 86.2599 99.2641C86.2234 99.6845 85.9309 99.8125 85.7115 100.05C85.218 100.507 84.7793 100.836 83.975 101.567C83.1706 102.317 82.8233 102.719 82.3115 103.194C82.1652 103.304 82.019 103.505 81.7082 103.523C81.5437 103.523 81.3792 103.432 81.2695 103.304C81.1781 103.213 81.1233 103.085 81.1233 102.957C81.1416 102.609 81.3609 102.445 81.5254 102.207C81.69 101.988 81.8179 101.768 81.8179 101.513C81.8179 101.311 81.7265 101.056 81.4157 100.69L76.206 95.0414C75.9501 94.7489 75.8038 94.6941 75.7855 94.6941C75.7672 94.6758 75.621 94.7489 75.3834 94.9683L74.3597 95.9188C74.0124 96.2479 73.921 96.5038 73.921 96.778C73.9027 97.3447 74.4145 97.8931 74.4694 98.4963C74.4694 98.6426 74.4145 98.8254 74.2683 98.9533C74.1769 99.0447 74.0489 99.0996 73.9027 99.0996C73.4822 99.0447 73.3909 98.7157 73.2995 98.6243L72.0199 96.8511C71.965 96.7597 71.8188 96.65 71.8005 96.3758C71.8005 96.3027 71.8919 96.1565 71.9833 96.0834ZM63.1724 107.709C63.538 107.161 63.9584 106.667 64.2692 106.192C64.5799 105.717 64.8724 105.169 65.4025 104.382C65.6036 104.108 65.6767 103.907 66.024 103.852C66.152 103.852 66.2434 103.907 66.2982 103.944C66.4445 104.035 66.5359 104.236 66.5359 104.382C66.5176 104.712 66.3531 104.913 66.3714 105.132C66.3714 105.315 66.4262 105.516 66.8832 105.827L73.4274 110.214C73.7747 110.451 74.0489 110.525 74.25 110.525C74.5425 110.525 74.7619 110.36 74.9812 110.141C75.2189 109.94 75.292 109.665 75.7124 109.592C75.8038 109.592 75.8952 109.629 75.9501 109.665C76.0597 109.738 76.1694 109.903 76.1694 110.049C76.1694 110.269 76.0597 110.415 75.9318 110.616C75.5844 111.146 75.1823 111.603 74.4694 112.663C74.0855 113.248 73.7382 113.851 73.5005 114.235C73.4274 114.363 73.2812 114.436 73.1532 114.436H73.1349C73.007 114.436 72.9156 114.382 72.8607 114.345C72.6779 114.235 72.5865 113.998 72.6048 113.833C72.6048 113.596 72.6779 113.413 72.6779 113.212C72.6597 112.974 72.6231 112.755 72.1113 112.389L65.5305 107.965C65.3294 107.837 65.1649 107.783 65.0369 107.783C64.781 107.783 64.5251 107.947 64.2692 108.166C63.995 108.367 63.8304 108.66 63.4283 108.697C63.3369 108.697 63.2272 108.66 63.1541 108.605C63.0079 108.514 62.9347 108.349 62.9347 108.203C62.9347 107.965 63.1358 107.783 63.1724 107.709ZM56.9206 119.847C57.4507 118.531 58.4013 118.001 58.4561 117.727C58.4561 117.727 58.4744 117.635 58.4744 117.526C58.4744 117.434 58.4744 117.343 58.4744 117.233C58.4744 117.105 58.4744 116.977 58.5293 116.831C58.5658 116.667 58.7852 116.52 58.9497 116.539C59.1691 116.557 59.3153 116.63 59.5346 116.685L61.6551 117.325C61.911 117.398 62.2766 117.544 62.2766 117.946C62.2766 118.056 62.2401 118.147 62.2035 118.257C62.0938 118.476 61.9293 118.476 61.8196 118.513C61.6917 118.531 61.5637 118.531 61.3992 118.531C61.0884 118.531 60.6863 118.549 60.2659 118.604C59.425 118.751 58.5475 119.116 58.0723 120.341C57.9626 120.597 57.926 120.853 57.926 121.072C57.926 121.639 58.2002 122.059 58.8583 122.333C59.0228 122.388 59.1508 122.425 59.2605 122.425C59.7906 122.461 60.4304 121.767 61.8379 120.341C62.8433 119.354 63.7391 118.623 64.9821 118.623C65.4574 118.623 65.9692 118.732 66.5176 118.952C68.108 119.573 69.0219 120.926 69.0219 122.443C69.0219 122.973 68.9123 123.522 68.6929 124.07C68.2908 125.075 67.5778 125.733 67.0477 126.519C66.9015 126.739 66.6821 126.903 66.4628 126.903H66.4445C66.2983 126.903 66.1703 126.867 66.024 126.849L63.739 126.483L63.7756 126.209L63.7208 126.483C63.6294 126.465 63.4649 126.446 63.3003 126.392C63.1358 126.355 62.8799 126.19 62.8799 125.88C62.8799 125.807 62.8982 125.715 62.9347 125.642C63.0078 125.386 63.3186 125.222 63.4831 125.258C63.5562 125.258 63.6111 125.258 63.6659 125.276C63.8122 125.276 63.9584 125.295 64.1046 125.295C65.6036 125.295 66.9746 124.856 67.523 123.448C67.651 123.138 67.7058 122.845 67.7058 122.553C67.7058 121.822 67.3402 121.218 66.5542 120.908C66.3348 120.816 66.152 120.78 65.9875 120.78C65.2929 120.743 64.5799 121.566 62.8982 123.247C62.0756 124.052 61.2895 124.691 60.211 124.691C59.8089 124.691 59.3884 124.6 58.9314 124.417C57.5056 123.851 56.6464 122.626 56.6464 121.218C56.6464 120.798 56.7378 120.323 56.9206 119.847ZM51.8754 143.447C51.8754 143.41 51.8754 143.374 51.8754 143.337C51.9668 142.551 52.0581 142.441 52.1678 141.436C52.2958 140.357 52.3689 139.224 52.4969 138.109C52.8625 134.855 54.9098 134.27 55.9518 134.288C56.098 134.288 56.2443 134.307 56.354 134.307C57.4873 134.435 58.1271 135.056 58.4927 135.641C58.7121 136.007 58.8217 136.336 58.9131 136.519C58.9863 136.482 59.0959 136.445 59.2422 136.391C59.5347 136.281 59.9185 136.116 60.3938 135.915C61.3078 135.532 62.496 135.02 63.6111 134.544C63.7208 134.508 63.7573 134.343 63.7756 134.215C63.7756 134.215 63.7756 134.197 63.7756 134.179C63.7756 134.106 63.739 133.978 63.739 133.795C63.739 133.758 63.739 133.722 63.739 133.703C63.7573 133.448 63.9767 133.228 64.2326 133.247C64.2509 133.247 64.2874 133.247 64.2874 133.247C64.6896 133.32 64.8907 133.649 65.0186 133.978C65.1466 134.325 65.2014 134.727 65.2014 135.093C65.2014 135.202 65.2014 135.294 65.1832 135.404C65.0004 136.884 63.739 137.341 62.7519 137.725L59.9916 138.785C59.2787 139.096 59.2422 139.151 59.1142 139.955C59.0959 140.12 59.0776 140.266 59.0776 140.357C59.0776 140.412 59.0776 140.449 59.0776 140.467C59.1325 140.485 59.2605 140.485 59.4615 140.522L62.2949 140.869C62.3863 140.888 62.4777 140.888 62.5509 140.888C63.3917 140.869 63.3552 140.357 63.5928 139.827C63.6476 139.681 63.8122 139.443 64.1046 139.443C64.1229 139.443 64.1595 139.443 64.1778 139.443C64.4702 139.462 64.6348 139.791 64.6165 140.065C64.6165 140.138 64.6165 140.211 64.5982 140.284C64.5616 140.595 64.4519 141.016 64.3605 141.692C64.2509 142.569 64.2143 143.392 64.1229 144.214C64.1046 144.288 64.1047 144.434 64.0681 144.58C64.0315 144.726 63.8304 144.946 63.5928 144.946H63.5745C63.538 144.946 63.5197 144.946 63.5014 144.946C63.2272 144.927 63.081 144.671 63.0444 144.507C62.9896 144.342 62.9713 144.196 62.9164 144.05C62.7885 143.794 62.5874 143.483 61.6186 143.355L54.398 142.478C54.3066 142.46 54.2152 142.46 54.1421 142.46C53.2281 142.478 53.2098 143.099 52.9539 143.648C52.8808 143.812 52.7345 144.05 52.4237 144.05C52.3872 144.05 52.3872 144.05 52.3506 144.05C52.0033 143.977 51.8754 143.648 51.8754 143.447ZM54.7453 160.904C54.6539 161.197 54.6539 161.562 54.5991 161.891C54.5625 162.092 54.4163 162.385 54.0872 162.44C54.0507 162.44 54.0324 162.44 54.0141 162.44C53.7216 162.44 53.484 162.184 53.4474 161.891C53.356 161.197 53.2463 160.027 52.8807 157.522C52.7162 156.371 52.4786 155.256 52.2775 153.811C52.2775 153.775 52.2775 153.757 52.2775 153.72C52.2775 153.391 52.5151 153.172 52.7711 153.135L54.3797 152.843C54.4711 152.824 54.6722 152.77 54.8915 152.77C55.0926 152.751 55.4582 152.897 55.5131 153.245C55.5131 153.281 55.5131 153.3 55.5131 153.336C55.5131 153.647 55.2571 153.83 55.0926 153.866C54.9098 153.939 54.727 153.976 54.5625 154.049C54.2518 154.214 53.941 154.415 53.9227 155.384C53.9227 155.603 53.941 155.859 53.9958 156.17C54.1055 156.956 54.1786 157.431 54.2883 157.669C54.398 157.888 54.3614 157.851 54.5991 157.87C54.727 157.87 54.8916 157.851 55.1292 157.815L57.4142 157.486C57.7249 157.449 57.9077 157.394 57.9077 157.376C57.9077 157.376 57.926 157.339 57.926 157.266C57.926 157.193 57.9077 157.102 57.8895 156.956L57.7432 155.932C57.6153 155.054 56.9389 154.945 56.4271 154.762C56.2808 154.689 56.0615 154.671 55.9884 154.36C55.9884 154.342 55.9701 154.287 55.9701 154.214C55.9518 153.976 56.226 153.702 56.5733 153.684L59.4615 153.153C59.5529 153.135 59.7723 153.062 60.0099 153.062C60.211 153.044 60.5949 153.172 60.6315 153.556C60.6315 153.574 60.6315 153.592 60.6315 153.629C60.6132 153.921 60.3938 154.049 60.2476 154.141C60.083 154.232 59.9002 154.287 59.7357 154.378C59.3884 154.561 59.1325 154.762 59.1325 155.31C59.1325 155.384 59.1325 155.475 59.1508 155.585L59.3336 156.791C59.3701 157.01 59.4067 157.138 59.425 157.157C59.4432 157.157 59.4067 157.175 59.5346 157.175C59.6626 157.175 59.9185 157.138 60.2659 157.084L62.368 156.773C62.825 156.718 63.1724 156.663 63.3552 156.572C63.5197 156.48 63.5928 156.425 63.5928 156.06C63.5928 155.968 63.5928 155.859 63.5745 155.749C63.1175 152.769 61.9842 152.477 61.3444 152.148C61.1433 152.057 60.8691 151.947 60.796 151.6C60.796 151.581 60.796 151.563 60.796 151.526C60.7777 151.289 61.0336 151.069 61.3626 151.051C61.5089 151.033 61.6369 151.015 61.7831 151.015C63.0627 151.015 64.4154 151.819 64.6165 153.208C64.9821 155.694 65.0552 156.7 65.1649 157.504C65.238 157.998 65.4025 158.674 65.5305 159.588C65.5305 159.643 65.5488 159.679 65.5488 159.716C65.567 159.935 65.4391 160.191 65.1649 160.228C65.1283 160.228 65.0918 160.228 65.0552 160.228C64.8176 160.246 64.6165 160.081 64.5434 159.935C64.452 159.789 64.4154 159.661 64.3605 159.57C64.2326 159.387 64.1778 159.222 63.5928 159.204C63.4648 159.204 63.3186 159.222 63.1358 159.241L55.4765 160.356C54.9647 160.447 54.855 160.612 54.7453 160.904ZM61.6551 181.469V181.524C61.6368 181.634 61.71 181.853 61.3809 182.072C61.3078 182.109 61.2164 182.127 61.1433 182.127C60.54 182.036 60.5766 181.451 60.4669 181.341C60.2293 180.829 60.0648 180.281 59.8454 179.787C59.425 178.818 59.1691 178.435 59.0594 178.16C58.9497 177.904 58.8766 177.776 58.8583 177.557C58.8583 177.319 59.0777 177.173 59.1873 177.137C59.2605 177.1 59.3336 177.082 59.3884 177.082C59.7357 177.1 59.8637 177.356 59.9916 177.484C60.1196 177.63 60.2293 177.703 60.2841 177.703C60.3024 177.703 60.339 177.703 60.3938 177.685C60.7777 177.521 61.3992 177.027 62.1304 176.241L66.0789 172.165L60.6315 172.128H60.6132C59.4433 172.128 58.968 172.311 58.7669 172.42C58.2733 172.658 58.2368 172.859 58.2185 173.133C58.2185 173.426 58.3464 173.737 58.3647 174.066C58.383 174.23 58.2916 174.486 58.054 174.577C57.9991 174.596 57.926 174.614 57.8529 174.614C57.3045 174.541 57.2679 174.029 57.1765 173.919C56.9755 173.462 56.8475 173.005 56.6647 172.585C56.4819 172.183 56.2443 171.799 56.0432 171.342C55.9701 171.159 55.8604 171.031 55.8604 170.794C55.8421 170.611 56.0066 170.41 56.1711 170.373C56.2443 170.337 56.3174 170.318 56.3905 170.318C56.9938 170.41 57.0303 170.848 57.9077 170.848L68.8026 170.921C68.8392 170.921 68.894 170.921 68.9305 170.921C69.2779 170.903 69.6069 170.995 69.7166 171.287C69.7349 171.342 69.7532 171.415 69.7532 171.488C69.7349 171.799 69.5521 172.037 69.1316 172.512L62.0024 180.171C61.6734 180.537 61.6003 180.683 61.6003 180.994C61.6003 181.122 61.6186 181.268 61.6551 181.469ZM69.9725 193.497C69.9725 193.625 69.9177 193.808 69.7714 193.918C69.6983 193.973 69.5886 194.009 69.4789 194.009C69.0402 193.954 68.9305 193.607 68.8574 193.552C68.4553 193.022 68.1079 192.474 67.7606 192.035C67.4133 191.578 66.9929 191.139 66.4079 190.39C66.2251 190.134 66.0971 190.024 66.0789 189.768C66.0789 189.585 66.2068 189.457 66.2799 189.403C66.3713 189.329 66.481 189.293 66.609 189.293C66.9015 189.311 67.0294 189.476 67.1757 189.567C67.3219 189.677 67.4499 189.732 67.5961 189.732C67.7423 189.732 67.9434 189.677 68.2542 189.439L74.4694 184.613C74.9629 184.229 75.0543 183.937 75.0543 183.699C75.0726 183.242 74.6522 182.913 74.5791 182.401C74.5791 182.292 74.6339 182.127 74.7436 182.054C74.8167 181.999 74.9264 181.944 75.0361 181.944C75.3285 181.963 75.4565 182.145 75.6393 182.365C76.0232 182.858 76.3339 183.37 77.12 184.394C77.5404 184.942 78.034 185.454 78.3082 185.82C78.363 185.893 78.4178 186.002 78.4178 186.094C78.4178 186.295 78.2899 186.405 78.2168 186.459C78.1071 186.533 77.9791 186.587 77.8695 186.587C77.3942 186.533 77.2114 186.222 76.8823 186.258C76.7178 186.258 76.4802 186.313 76.1511 186.587L69.8811 191.45C69.5886 191.688 69.5338 191.87 69.5155 192.09C69.5338 192.528 69.9359 192.985 69.9725 193.497ZM92.9504 199.566C92.8042 199.749 92.5848 199.822 92.4203 199.804C92.0547 199.786 91.7439 199.658 91.4149 199.658C91.1041 199.658 90.8116 199.749 90.446 200.206L86.589 205.16C85.9675 205.964 85.803 206.494 85.803 206.823C85.803 207.116 85.9126 207.317 86.0589 207.518C86.1868 207.719 86.3879 207.865 86.4062 208.213C86.4062 208.341 86.3513 208.469 86.2782 208.578C86.1868 208.688 86.0406 208.798 85.8395 208.798C85.7115 208.798 85.5836 208.743 85.4922 208.67C85.218 208.45 85.0169 208.213 84.7975 208.048C84.4868 207.81 84.0846 207.573 83.39 207.024C83.1889 206.86 83.0244 206.714 83.0244 206.494C83.0244 206.348 83.061 206.311 83.061 206.202C83.061 206.184 83.061 206.147 83.061 206.11L82.2932 196.276C82.2932 196.184 82.2749 196.111 82.2749 196.038C82.2383 196.075 82.2018 196.13 82.1652 196.184L78.7835 200.535C78.6189 200.754 78.5641 200.919 78.5641 201.083C78.5641 201.358 78.7286 201.668 78.9297 201.961C79.1308 202.272 79.3684 202.473 79.3867 202.857C79.3867 202.948 79.3501 203.058 79.2953 203.149C79.2222 203.24 79.0759 203.368 78.8566 203.368C78.7469 203.368 78.6189 203.332 78.5275 203.259C78.2899 203.076 77.9791 202.747 77.0834 202.052C76.2608 201.412 75.8038 201.138 75.6393 201.01C75.4748 200.882 75.3651 200.736 75.3651 200.553C75.3651 200.389 75.4382 200.297 75.4748 200.261C75.5662 200.133 75.749 200.06 75.8769 200.078C76.2242 200.096 76.4802 200.261 76.7726 200.261C77.0286 200.261 77.321 200.169 77.7049 199.676L83.4083 192.346C83.5728 192.163 83.6276 191.962 83.975 191.925C84.1029 191.925 84.1943 191.98 84.2674 192.035C84.5234 192.218 84.5782 192.528 84.5599 192.675L85.547 204.282L88.8923 199.987C89.4589 199.255 89.6235 198.744 89.6235 198.396C89.6235 198.049 89.4772 197.811 89.2944 197.574C89.1299 197.336 88.874 197.19 88.8374 196.806C88.8374 196.678 88.8923 196.55 88.9654 196.459C89.0385 196.349 89.1847 196.294 89.3127 196.294C89.66 196.312 89.8428 196.532 89.989 196.623C90.6471 197.135 91.0493 197.537 91.488 197.866C91.8902 198.177 92.2741 198.396 92.6579 198.689C92.7128 198.762 93.0418 198.817 93.0966 199.255C93.0601 199.383 93.0235 199.493 92.9504 199.566ZM94.1569 192.876L97.6666 195.142L96.7526 196.55L93.2429 194.283L94.1569 192.876ZM107.721 210.534L105.856 215.598C105.801 215.726 105.783 215.835 105.783 215.945C105.783 216.237 105.966 216.42 106.258 216.621C106.514 216.841 106.916 216.932 106.971 217.426C106.971 217.499 106.953 217.554 106.935 217.608C106.861 217.846 106.606 217.956 106.459 217.956C106.441 217.956 106.441 217.956 106.423 217.956C106.313 217.956 106.24 217.938 106.167 217.919C105.947 217.846 104.814 217.353 104.046 217.078C103.26 216.786 102.145 216.457 101.834 216.329C101.633 216.274 101.524 216.055 101.542 215.908C101.542 215.817 101.56 215.762 101.579 215.689C101.633 215.451 101.926 215.342 102.072 215.36C102.218 215.36 102.346 215.378 102.456 215.378C102.748 215.36 103.169 215.323 103.717 213.916L104.96 210.552C105.289 209.675 105.49 208.834 105.49 208.103C105.472 206.878 104.979 205.928 103.315 205.306C102.785 205.105 102.328 205.032 101.908 205.032C100.08 205.014 99.0925 206.787 98.3064 208.944L97.1731 212.015C97.1 212.234 97.0634 212.417 97.0634 212.582C97.0634 213.02 97.3193 213.294 97.6483 213.55C97.9408 213.825 98.3613 213.916 98.4344 214.428C98.4344 214.483 98.4161 214.537 98.3978 214.592C98.3613 214.757 98.1419 214.921 97.9774 214.903C97.7398 214.885 97.6118 214.775 97.5021 214.757C97.0634 214.556 96.6612 214.373 96.2408 214.227C95.7472 214.044 95.2537 213.898 94.4494 213.623C94.3214 213.587 94.0472 213.459 94.0472 213.166C94.0472 213.093 94.0655 213.02 94.0838 212.965C94.1569 212.728 94.4311 212.636 94.559 212.655C94.687 212.655 94.7967 212.673 94.8881 212.673C95.144 212.655 95.3999 212.655 95.7655 211.741L97.0451 208.231C97.9408 205.763 99.3484 203.661 102.072 203.661C102.84 203.661 103.717 203.825 104.686 204.191C106.88 204.977 108.159 206.366 108.141 208.304C108.159 208.98 108.013 209.73 107.721 210.534ZM110.481 202.436L106.514 201.157L107.026 199.566L110.993 200.846L110.481 202.436ZM106.953 198.908L102.291 196.989L98.3795 194.941L98.6538 194.375L108.561 181.963L108.653 181.926L108.799 181.871L108.854 182.054L111.303 199.493V200.151L111.194 200.279L106.953 198.908ZM115.307 203.569L111.249 202.655L111.614 201.01L115.672 201.924L115.307 203.569ZM111.669 200.407C111.724 200.078 114.265 196.806 114.429 196.532L122.71 185.491C122.856 185.673 122.893 185.765 122.911 185.948L125.251 202.198H125.087L123.039 202.107L119.566 201.906L115.873 201.339L111.669 200.407ZM120.261 204.264L116.129 203.716L116.349 202.052L120.48 202.601L120.261 204.264ZM125.196 204.538L121.028 204.356L121.102 202.674L125.269 202.875L125.196 204.538ZM122.326 178.233L120.955 167.997L122.747 168.307L125.434 168.49L125.562 168.636L125.635 199.749L122.326 178.233ZM126.129 167.558H126.092H126.074H126.037H126.001H125.982H125.946H125.927H125.909H125.891H125.873H125.854H125.763H125.745H125.69H125.653V166.114C127.353 166.114 129.035 165.895 130.662 165.456L131.046 166.845C129.602 167.229 128.121 167.467 126.567 167.54C126.549 167.54 126.531 167.54 126.512 167.54H126.439H126.421C126.403 167.54 126.384 167.54 126.384 167.54H126.348H126.275C126.256 167.54 126.256 167.54 126.238 167.54C126.147 167.558 126.129 167.558 126.129 167.558ZM126.202 204.538L126.129 202.857L130.296 202.674L130.369 204.356L126.202 204.538ZM126.384 202.217H126.22L128.56 185.655L128.706 185.527L138.23 197.939L139.875 200.279C138.888 200.535 139.254 200.444 138.504 200.608L135.36 201.303L132.545 201.76L130.479 202.016L126.384 202.217ZM131.283 204.264L131.064 202.601L135.195 202.052L135.415 203.716L131.283 204.264ZM136.128 203.588L135.762 201.943L139.838 201.029L140.204 202.674L136.128 203.588ZM140.423 200.864L144.39 199.603L144.902 201.211L140.935 202.473L140.423 200.864ZM158.374 212.746C158.21 212.837 158.027 212.911 157.899 212.965C157.406 213.148 156.949 213.276 156.144 213.587C155.23 213.953 154.645 214.245 154.188 214.428C154.079 214.464 153.969 214.501 153.859 214.501C153.676 214.519 153.457 214.391 153.384 214.19C153.366 214.135 153.347 214.062 153.347 214.007C153.402 213.605 153.676 213.514 153.841 213.368C154.024 213.203 154.133 213.093 154.133 212.819C154.133 212.709 154.115 212.545 154.024 212.344L153.073 209.894C153.018 209.748 152.963 209.638 152.927 209.584C152.89 209.547 152.909 209.565 152.89 209.565C152.872 209.565 152.854 209.565 152.799 209.584L148.229 211.375C148.046 211.466 148.064 211.485 148.046 211.613C148.046 211.686 148.083 211.814 148.119 211.923L148.978 214.099C149.271 214.775 149.563 214.848 149.911 214.867C150.221 214.867 150.532 214.757 150.825 214.739C150.953 214.72 151.209 214.812 151.282 215.031C151.318 215.104 151.337 215.196 151.337 215.287C151.355 215.451 151.227 215.616 151.117 215.653C151.026 215.707 150.934 215.726 150.861 215.762C150.203 216.018 149.801 216.11 148.85 216.475C148.064 216.786 147.516 217.06 146.84 217.334C146.712 217.389 146.62 217.407 146.492 217.407H146.474C146.291 217.407 146.108 217.225 146.09 217.115C146.054 217.042 146.035 216.969 146.035 216.896C146.072 216.493 146.383 216.402 146.511 216.274C146.675 216.146 146.748 216.073 146.767 215.817C146.767 215.689 146.73 215.506 146.639 215.269L143.842 208.158C143.44 207.207 143.056 207.171 142.617 207.134C142.453 207.134 142.27 207.152 142.105 207.152C141.904 207.171 141.575 207.098 141.465 206.787C141.447 206.732 141.429 206.659 141.429 206.586C141.429 206.421 141.539 206.275 141.63 206.22C141.721 206.165 141.794 206.147 141.868 206.11C142.398 205.909 143.312 205.617 143.933 205.361C144.463 205.16 145.048 204.849 145.853 204.538C145.962 204.502 146.054 204.465 146.163 204.465C146.31 204.447 146.529 204.575 146.584 204.739C146.602 204.813 146.62 204.886 146.62 204.959C146.602 205.324 146.346 205.452 146.218 205.617C146.072 205.781 145.962 205.909 145.962 206.202C145.962 206.348 145.999 206.549 146.09 206.805L147.169 209.584C147.242 209.766 147.297 209.894 147.333 209.986C147.37 210.077 147.406 210.095 147.406 210.095C147.406 210.095 147.406 210.095 147.425 210.095C147.461 210.095 147.589 210.077 147.772 210.004L151.885 208.395C152.324 208.213 152.305 208.176 152.305 208.121C152.305 208.066 152.269 207.884 152.159 207.628L151.209 205.215C150.861 204.392 150.477 204.319 150.02 204.301C149.71 204.301 149.399 204.374 149.125 204.374C148.96 204.392 148.668 204.319 148.558 204.063C148.558 204.045 148.521 203.99 148.503 203.862C148.521 203.569 148.741 203.442 149.088 203.314C149.746 203.058 150.258 202.93 151.355 202.491C151.976 202.253 152.616 201.924 153.384 201.614C153.475 201.577 153.585 201.54 153.713 201.54C153.877 201.522 154.115 201.668 154.17 201.869C154.207 201.943 154.207 202.016 154.207 202.089C154.17 202.491 153.896 202.619 153.75 202.802C153.585 202.985 153.439 203.149 153.439 203.515C153.439 203.716 153.494 203.99 153.622 204.356L156.309 211.211C156.583 211.832 156.821 211.887 157.168 211.905C157.479 211.905 157.808 211.777 158.137 211.777C158.301 211.759 158.594 211.869 158.667 212.106C158.685 212.161 158.703 212.216 158.703 212.271C158.703 212.527 158.521 212.636 158.374 212.746ZM157.972 192.437L161.263 189.86L162.305 191.176L159.014 193.735L157.972 192.437ZM171.134 204.52C170.311 205.178 169.489 205.507 168.812 205.708C168.172 205.891 167.661 206.001 167.569 206.074C167.569 206.074 167.569 206.074 167.569 206.092C167.569 206.165 167.624 206.311 167.624 206.494C167.624 206.586 167.606 206.75 167.459 206.86C167.386 206.915 167.313 206.988 167.13 206.988H167.112C167.021 206.988 166.911 206.951 166.875 206.878L164.681 204.611C164.608 204.52 164.37 204.374 164.334 204.026C164.334 203.899 164.407 203.734 164.516 203.661C164.626 203.569 164.754 203.533 164.882 203.533C165.174 203.551 165.394 203.697 165.54 203.752C166.326 204.1 167.204 204.319 168.044 204.319C168.904 204.319 169.726 204.1 170.421 203.533C171.262 202.857 171.609 201.961 171.609 201.01C171.609 199.987 171.189 198.89 170.494 198.031C169.543 196.824 167.825 195.654 166.143 195.673C165.376 195.673 164.608 195.91 163.877 196.477C162.469 197.592 162.359 199.127 162.268 200.005C162.213 200.297 162.25 200.517 162.012 200.736C161.902 200.827 161.793 200.846 161.683 200.846C161.592 200.846 161.445 200.827 161.336 200.7C161.135 200.425 161.043 199.987 161.043 199.402C161.043 198.122 161.573 196.13 163.548 194.557C164.827 193.534 166.07 193.15 167.185 193.15C169.489 193.168 171.152 194.722 171.737 195.453C172.669 196.623 173.382 198.268 173.382 199.987C173.4 201.559 172.761 203.222 171.134 204.52ZM185.081 189.841C184.679 190.371 184.222 190.828 183.893 191.285C183.546 191.742 183.217 192.254 182.632 193.004C182.412 193.26 182.339 193.442 182.01 193.479C181.864 193.479 181.773 193.406 181.718 193.369C181.59 193.278 181.498 193.095 181.517 192.949C181.553 192.565 181.754 192.364 181.736 192.126C181.736 191.962 181.681 191.761 181.261 191.432L175.027 186.606C174.662 186.313 174.388 186.24 174.186 186.24C173.912 186.24 173.693 186.386 173.474 186.587C173.236 186.77 173.145 187.026 172.742 187.063C172.651 187.063 172.56 187.026 172.468 186.971C172.359 186.898 172.267 186.752 172.285 186.606C172.304 186.386 172.413 186.222 172.56 186.021C172.943 185.509 173.364 185.088 174.15 184.065C174.57 183.516 174.954 182.913 175.228 182.566C175.302 182.456 175.448 182.383 175.576 182.383C175.722 182.383 175.813 182.438 175.887 182.493C176.051 182.602 176.124 182.803 176.106 182.95C176.088 183.242 175.978 183.443 175.978 183.663C175.978 183.864 176.051 184.101 176.508 184.467L182.778 189.329C182.997 189.494 183.162 189.549 183.308 189.549C183.546 189.549 183.802 189.403 184.058 189.201C184.332 189.019 184.515 188.763 184.88 188.744C184.99 188.744 185.1 188.781 185.191 188.854C185.319 188.946 185.392 189.092 185.374 189.22C185.356 189.604 185.118 189.768 185.081 189.841ZM196.653 166.863C196.543 167.156 196.36 167.393 195.994 168.344C195.446 169.697 195.446 169.916 195.318 170.19C195.245 170.318 195.172 170.611 194.788 170.647C194.733 170.647 194.678 170.629 194.623 170.611C194.203 170.428 194.221 170.007 194.221 169.806C194.221 169.806 194.221 169.806 194.221 169.788C194.221 169.514 194.221 169.459 194.112 169.404C194.039 169.368 193.783 169.331 193.362 169.295L186.544 168.911L186.562 168.636L186.544 168.911C186.525 168.911 186.507 168.911 186.489 168.911L189.066 171.689C189.249 171.872 189.45 172.091 189.505 172.128C189.578 172.146 190.017 172.165 190.291 172.165L192.814 172.292C192.814 172.292 192.832 172.292 192.85 172.292C193.106 172.292 193.216 172.183 193.362 172.018C193.508 171.872 193.582 171.598 193.984 171.543C194.057 171.543 194.112 171.561 194.185 171.58C194.441 171.671 194.514 171.945 194.496 172.091C194.496 172.201 194.477 172.292 194.441 172.366C194.331 172.64 194.148 172.896 193.783 173.846C193.234 175.199 193.234 175.418 193.106 175.693C193.033 175.821 192.96 176.113 192.576 176.15C192.521 176.15 192.466 176.131 192.412 176.113C192.009 175.948 192.009 175.528 192.009 175.309C192.009 175.309 192.009 175.29 192.009 175.272C192.009 174.998 191.991 174.943 191.9 174.907C191.827 174.87 191.571 174.833 191.15 174.797L185.063 174.431C184.917 174.413 184.789 174.413 184.661 174.395C184.734 174.468 184.844 174.541 184.935 174.632L188.847 178.014C189.103 178.233 189.578 178.471 189.889 178.599C190.017 178.654 190.127 178.672 190.2 178.672C190.437 178.672 190.62 178.508 190.803 178.27C191.004 178.051 191.041 177.722 191.498 177.649C191.552 177.649 191.626 177.667 191.662 177.685C191.827 177.74 192.046 177.941 192.028 178.197C192.028 178.307 191.991 178.416 191.955 178.563C191.882 178.764 191.571 179.312 191.388 179.806C190.986 180.811 191.004 180.921 190.876 181.268C190.84 181.359 190.748 181.634 190.401 181.652C190.328 181.652 190.273 181.634 190.218 181.615C190.072 181.56 189.944 181.414 189.907 181.286C189.871 181.158 189.871 181.085 189.852 180.994C189.816 180.829 189.779 180.628 189.359 180.263L181.224 172.987C181.096 172.859 180.932 172.731 180.932 172.475C180.932 172.402 180.95 172.311 180.987 172.238C181.078 171.945 181.425 171.835 181.681 171.854C181.736 171.854 181.791 171.854 181.864 171.854L187.75 172.055L183.454 167.448C183.308 167.32 183.162 167.174 183.144 166.936C183.144 166.863 183.162 166.772 183.199 166.699C183.29 166.406 183.637 166.297 183.893 166.315C183.948 166.315 184.003 166.315 184.076 166.315L194.989 166.772H195.026C195.282 166.772 195.391 166.662 195.537 166.498C195.684 166.352 195.757 166.077 196.159 166.041C196.232 166.041 196.287 166.059 196.342 166.077C196.598 166.169 196.671 166.443 196.653 166.589C196.689 166.699 196.671 166.79 196.653 166.863ZM199.157 144.763C199.157 144.836 199.157 144.927 199.157 145.019C199.157 145.202 199.157 145.421 199.157 145.695C199.157 145.915 199.157 146.17 199.139 146.481C199.139 146.737 199.084 146.956 198.901 147.084C198.736 147.176 198.718 147.158 198.572 147.286L190.967 153.574C190.894 153.629 190.84 153.684 190.785 153.738C190.84 153.738 190.894 153.738 190.949 153.757L196.451 154.031C196.47 154.031 196.488 154.031 196.525 154.031C197.329 154.049 197.475 153.208 197.731 152.568C197.822 152.386 197.95 152.111 198.279 152.111C198.279 152.111 198.298 152.111 198.316 152.111C198.481 152.111 198.846 152.276 198.846 152.642C198.846 152.66 198.846 152.66 198.846 152.678C198.828 152.989 198.736 153.428 198.682 154.561C198.663 155 198.663 155.347 198.663 155.621C198.663 155.932 198.663 156.151 198.663 156.261V156.334C198.663 156.517 198.608 156.681 198.481 156.773C198.371 156.882 198.243 156.882 198.17 156.882H198.133C197.859 156.864 197.695 156.627 197.658 156.48C197.603 156.316 197.548 156.151 197.493 156.005C197.347 155.713 197.183 155.457 196.378 155.402L187.11 154.945C186.928 154.927 186.8 154.945 186.653 154.89C186.489 154.853 186.324 154.616 186.361 154.47C186.361 154.47 186.361 154.451 186.361 154.433C186.361 154.122 186.58 153.903 186.708 153.83L195.647 146.335L190.218 146.061C190.108 146.061 190.017 146.042 189.926 146.042C187.97 146.097 188.152 146.883 187.915 147.523C187.878 147.724 187.677 148.035 187.348 148.017H187.33H187.312C187.092 148.017 186.946 147.834 186.909 147.706C186.873 147.578 186.855 147.45 186.855 147.34C186.855 147.249 186.855 147.158 186.855 147.103C186.891 146.28 186.982 145.713 187.019 145.147C187.019 145.019 187.019 144.909 187.019 144.781C187.019 144.507 187.001 144.269 187.001 144.013C187.001 143.922 187.001 143.812 187.001 143.721C187.001 143.721 187.001 143.703 187.001 143.684C187.001 143.666 187.001 143.611 187.001 143.556C187.001 143.465 187.001 143.355 187.056 143.209C187.11 143.063 187.293 142.935 187.476 142.953C187.494 142.953 187.513 142.953 187.513 142.953C187.805 142.971 188.006 143.173 188.098 143.355C188.207 143.538 188.262 143.739 188.353 143.922C188.555 144.288 188.737 144.58 189.487 144.635L195.775 144.946C195.885 144.946 196.013 144.946 196.122 144.946C198.06 144.891 197.877 144.233 198.152 143.666C198.206 143.483 198.426 143.209 198.736 143.227C198.755 143.227 198.773 143.227 198.773 143.227C199.011 143.227 199.321 143.447 199.303 143.776C199.303 143.776 199.303 143.776 199.303 143.812C199.248 144.196 199.157 144.489 199.157 144.763ZM120.297 82.3369C120.443 82.6111 120.571 82.7756 120.955 82.7756C120.974 82.7756 120.992 82.7756 121.028 82.7756C121.54 82.739 121.869 82.3186 122.089 81.6056C122.308 80.911 122.345 80.0336 122.345 79.3755C122.345 78.9368 122.326 78.5895 122.308 78.4432C122.29 78.0593 122.235 77.6755 122.107 77.4378C121.979 77.2002 121.833 77.0722 121.449 77.0722C121.412 77.0722 121.394 77.0722 121.357 77.0722C120.882 77.0905 120.553 77.5292 120.352 78.2421C120.151 78.9551 120.078 79.8508 120.078 80.5637C120.078 80.8927 120.096 81.1852 120.096 81.3863C120.133 81.6788 120.169 82.0627 120.297 82.3369Z" fill="#00539B"/>
<path d="M125.528 124.51C137.537 124.51 147.281 134.399 147.281 146.61C147.281 158.821 137.537 168.711 125.528 168.711C113.518 168.711 103.774 158.821 103.774 146.61C103.774 134.399 113.518 124.51 125.528 124.51ZM125.528 125.223C113.938 125.223 104.506 134.801 104.506 146.592C104.506 158.364 113.938 167.961 125.528 167.961C137.117 167.961 146.55 158.383 146.55 146.592C146.531 134.82 137.117 125.223 125.528 125.223Z" fill="#00539B"/>
<path d="M125.548 127.242C136.077 127.242 144.595 135.907 144.595 146.601C144.595 157.294 136.059 165.959 125.548 165.959C115.018 165.959 106.5 157.294 106.5 146.601C106.482 135.907 115.018 127.242 125.548 127.242ZM125.548 127.973C115.439 127.973 107.213 136.327 107.213 146.601C107.213 156.874 115.439 165.228 125.548 165.228C135.657 165.228 143.883 156.874 143.883 146.601C143.864 136.327 135.638 127.973 125.548 127.973Z" fill="#00539B"/>
</svg>
